<svg version="1.1" id="Layer_1" xmlns="http://www.w3.org/2000/svg" xmlns:xlink="http://www.w3.org/1999/xlink" x="0px" y="0px"
	 width="100%" viewBox="0 0 500 500" enable-background="new 0 0 500 500" xml:space="preserve">
<path fill="#000000" opacity="1.000000" stroke="none" 
	d="
M287.000000,501.000000 
	C191.333359,501.000000 96.166710,501.000000 1.000051,501.000000 
	C1.000034,334.333405 1.000034,167.666794 1.000017,1.000141 
	C167.666565,1.000094 334.333130,1.000094 500.999756,1.000047 
	C500.999847,167.666519 500.999847,334.333038 500.999939,500.999786 
	C429.833344,501.000000 358.666656,501.000000 287.000000,501.000000 
M347.028290,111.018280 
	C347.028290,111.018280 347.080719,111.103294 346.477203,111.260757 
	C346.425110,111.650475 346.372986,112.040192 346.165985,112.622467 
	C346.165985,112.622467 346.131866,112.867233 345.602875,113.091225 
	C345.437042,113.413399 345.271210,113.735580 345.016388,114.012787 
	C345.016388,114.012787 345.075928,114.092720 344.469604,114.252747 
	C344.414185,114.644478 344.358765,115.036209 344.152222,115.616791 
	C344.152222,115.616791 344.120636,115.856606 343.586884,116.079308 
	C343.410645,116.401131 343.234406,116.722961 343.000000,117.000648 
	C343.000000,117.000648 343.056610,117.048668 342.372925,117.279411 
	C341.228394,119.033821 339.210297,120.912048 343.000000,121.999870 
	C343.000000,121.999870 343.032013,121.958244 343.161346,122.466118 
	C343.461395,122.604294 343.761414,122.742470 344.015930,122.968239 
	C344.015930,122.968239 344.102814,122.921402 344.287384,123.563568 
	C345.933746,124.129532 347.799347,126.319794 348.998871,122.991035 
	C348.998871,122.991035 348.927979,122.918922 349.523438,122.739357 
	C349.581207,122.350449 349.638977,121.961548 349.852936,121.386307 
	C349.852936,121.386307 349.893280,121.146523 350.426605,120.925629 
	C350.588898,120.601250 350.751190,120.276863 350.998993,119.994949 
	C350.998993,119.994949 350.931030,119.927544 351.525177,119.744514 
	C351.567841,119.356316 351.610474,118.968124 351.811432,118.371010 
	C351.811432,118.371010 351.853882,118.112350 352.391144,117.906044 
	C352.564545,117.585831 352.737946,117.265617 352.995483,116.994423 
	C352.995483,116.994423 352.929962,116.922256 353.563995,116.754616 
	C354.021698,115.820671 354.479431,114.886726 354.999481,114.000259 
	C354.999481,114.000259 354.942169,113.947571 355.567719,113.753334 
	C356.027069,112.820320 356.486450,111.887314 357.000000,111.000130 
	C357.000000,111.000130 356.951721,110.948410 357.469696,110.845100 
	C357.606903,110.543144 357.744110,110.241196 357.971802,109.983742 
	C357.971802,109.983742 357.917908,109.898575 358.594086,109.705551 
	C360.023621,107.631027 361.379181,105.500328 362.900909,103.495781 
	C364.939301,100.810730 363.776184,98.899071 361.470734,97.379250 
	C359.069702,95.796432 356.677063,95.417427 354.985474,98.457207 
	C353.961945,100.296486 353.018524,102.180328 352.000519,104.002136 
	C352.000519,104.002136 352.048309,104.031937 351.423370,104.235100 
	C350.979614,105.175148 350.535828,106.115204 350.006348,107.002251 
	C350.006348,107.002251 350.073242,107.077377 349.443756,107.259911 
	C348.980377,108.188629 348.516998,109.117348 348.000275,109.999870 
	C348.000275,109.999870 348.048309,110.051125 347.531616,110.156761 
	C347.393951,110.458160 347.256256,110.759560 347.028290,111.018280 
M338.981873,110.029457 
	C338.981873,110.029457 338.906586,110.053421 338.757782,109.452171 
	C338.165283,109.333382 337.572815,109.214592 336.986328,109.021278 
	C336.986328,109.021278 336.917084,109.049492 336.896179,108.502647 
	C336.922363,108.322121 336.948547,108.141594 336.992676,108.001472 
	C336.992676,108.001472 336.991943,107.958519 337.695526,107.989777 
	C338.495361,107.656349 339.295227,107.322922 340.775726,106.844284 
	C342.079407,105.265495 343.383057,103.686707 344.686737,102.107918 
	C346.349091,102.333916 348.166077,101.876396 348.573303,100.856140 
	C348.910919,100.010269 347.889832,98.126083 346.939941,97.359657 
	C344.538147,95.421745 341.893982,93.760757 339.244324,92.158501 
	C334.303314,89.170670 326.512482,91.801758 326.306061,96.919296 
	C326.084656,102.408051 323.997681,105.954811 319.435242,108.787231 
	C318.351410,109.460091 317.818665,112.703514 318.440704,114.165298 
	C322.179871,122.952568 333.472443,124.366096 340.578766,116.708351 
	C340.367401,114.837936 340.156036,112.967522 339.961456,111.019875 
	C339.961456,111.019875 339.884125,111.036194 339.838928,110.523613 
	C339.547180,110.384521 339.255402,110.245430 338.981873,110.029457 
M328.304016,323.319397 
	C327.207947,323.540863 326.111847,323.762329 324.345886,324.080536 
	C323.573181,324.522125 322.800476,324.963684 321.420471,325.452301 
	C321.605621,326.941223 321.790771,328.430145 321.972717,330.024811 
	C321.972717,330.024811 322.077515,330.039337 322.163879,330.480103 
	C322.327362,330.788574 322.580231,330.908203 322.971069,331.070465 
	C322.971069,331.070465 323.206451,331.047058 323.476257,331.644012 
	C323.982086,332.753723 324.487885,333.863464 325.112518,335.737030 
	C327.250854,340.690186 329.477966,345.607483 331.496643,350.608917 
	C332.864807,353.998627 334.887238,352.665283 337.017578,351.713715 
	C339.150146,350.761169 340.747498,349.885773 339.231659,346.991577 
	C335.954163,340.733887 332.958618,334.328552 329.970306,327.331879 
	C329.699890,326.368652 329.429443,325.405457 328.976196,324.023987 
	C328.976196,324.023987 328.560516,323.835449 328.304016,323.319397 
M250.118530,101.504112 
	C250.425430,101.358742 250.732315,101.213371 251.709305,100.736313 
	C255.331314,90.454224 259.027191,80.196663 262.461090,69.852127 
	C262.804932,68.816360 261.558075,67.252586 260.756042,65.333710 
	C259.798584,64.858948 258.841156,64.384186 257.654205,63.297710 
	C255.780334,62.203053 253.906479,61.108395 251.664780,59.321426 
	C246.124023,60.544544 240.583252,61.767658 234.972382,62.994953 
	C234.972382,62.994953 234.959839,63.063713 234.277725,63.070225 
	C233.522293,63.378429 232.766876,63.686638 231.503540,64.095932 
	C231.340012,64.151245 231.176498,64.206551 230.411118,64.097382 
	C229.948959,64.392754 229.486801,64.688133 228.384323,65.304283 
	C227.249359,68.186935 226.114395,71.069588 224.445129,74.122009 
	C224.372940,74.456177 224.300751,74.790344 224.097275,75.518539 
	C224.097275,75.518539 224.015274,75.925690 223.361465,76.220398 
	C223.995758,77.727043 224.224243,79.696098 225.329514,80.666069 
	C233.121292,87.504120 241.093353,94.136734 249.464142,100.993416 
	C249.464142,100.993416 249.943802,101.054306 250.118530,101.504112 
M310.793152,79.677650 
	C310.567596,79.841156 310.342010,80.004662 309.646423,80.145348 
	C309.646423,80.145348 309.191711,80.266350 308.435120,80.023758 
	C307.712311,80.762772 306.989471,81.501785 306.106201,82.542274 
	C306.106201,82.542274 306.097198,82.883675 305.463989,83.308586 
	C304.217316,87.525734 302.970673,91.742882 301.957428,95.170410 
	C298.119202,94.284561 294.502960,93.449944 290.727478,92.578583 
	C291.231567,90.606514 291.670197,88.890381 292.099518,87.210823 
	C300.072571,87.073853 300.072571,87.073853 299.259735,82.467041 
	C292.453247,81.887947 292.453247,81.887947 293.285126,75.976570 
	C296.256836,76.261414 299.241394,76.547485 302.417297,76.851906 
	C302.872131,75.421402 303.304779,74.060623 303.972809,71.959625 
	C299.101379,71.346169 294.317352,71.223221 289.808044,70.047089 
	C284.852875,68.754677 284.394073,71.027824 284.114624,74.957947 
	C283.672180,81.181526 283.105896,87.460953 281.753540,93.529915 
	C280.993408,96.941040 281.817108,97.471718 284.785828,97.885857 
	C290.564301,98.691971 296.286377,99.902245 302.007263,100.995209 
	C302.007263,100.995209 302.053528,100.964439 302.427094,101.626549 
	C306.726349,102.646614 311.025574,103.666679 315.619995,104.866417 
	C315.619995,104.866417 315.964691,104.890541 316.348297,105.547539 
	C321.784943,106.610329 320.022308,102.267700 320.871216,99.428909 
	C320.871216,99.428909 320.901093,99.060303 321.557526,98.649971 
	C322.201538,96.645111 323.371765,94.637917 323.362854,92.635956 
	C323.350403,89.828453 322.460785,87.024834 321.946289,84.054222 
	C321.946289,84.054222 321.780945,84.054710 321.567261,83.338707 
	C318.065796,82.326553 314.564331,81.314407 310.961182,80.106880 
	C310.961182,80.106880 310.742218,80.130661 310.793152,79.677650 
M198.333786,331.265594 
	C199.642746,342.989197 200.943527,354.713745 202.330978,366.428040 
	C202.354004,366.622406 203.431381,366.691864 204.742966,366.947784 
	C214.176987,361.963318 223.634674,357.022308 233.006119,351.922791 
	C233.882233,351.446045 234.213348,349.967682 234.911438,348.145172 
	C233.943741,344.755737 232.976044,341.366302 231.930481,337.506256 
	C231.930481,337.506256 231.765182,337.058807 231.754715,336.365234 
	C229.107635,334.852997 226.460556,333.340759 223.522308,331.241943 
	C217.485138,328.673248 211.893646,323.534912 204.640411,328.211090 
	C202.929428,329.314178 200.941879,329.988281 198.333786,331.265594 
M388.295959,173.566605 
	C390.841858,170.808731 391.118530,168.220688 388.533051,165.089478 
	C387.682007,164.058807 388.399017,161.733368 388.399017,159.999969 
	C391.050659,161.279144 392.994812,162.597366 393.856079,164.425705 
	C395.578430,168.082031 397.852051,166.953583 399.689392,165.220779 
	C401.128662,163.863403 402.290131,161.751099 402.650879,159.803055 
	C403.490234,155.270325 400.830811,151.151520 396.648895,149.589371 
	C391.963470,147.839142 384.781006,150.037964 381.757538,154.148224 
	C379.019501,157.870392 379.257935,163.726562 382.260651,167.379471 
	C384.053131,169.560104 385.796814,171.780853 387.288666,174.627228 
	C388.038330,177.667603 388.787964,180.707962 389.573334,183.893311 
	C394.932709,181.254379 399.299072,179.104401 403.872986,176.852219 
	C404.709412,179.296555 405.472046,181.525314 406.359863,184.119873 
	C408.465729,182.689728 410.304474,181.640381 411.872955,180.279556 
	C412.518158,179.719757 413.095520,178.281158 412.819733,177.600540 
	C411.691803,174.817001 410.018768,172.251007 408.932068,169.455017 
	C407.655945,166.171600 405.664337,166.478745 403.124207,167.664581 
	C398.435760,169.853333 393.704590,171.950607 388.295959,173.566605 
M349.202209,333.358398 
	C350.550110,335.602264 351.714478,337.993042 353.335510,340.018311 
	C353.991425,340.837799 356.208527,341.548889 356.737885,341.115540 
	C358.357666,339.789551 360.991730,337.197418 360.586090,336.318390 
	C358.340332,331.451813 355.442535,326.860626 352.497284,322.352051 
	C350.786102,319.732544 348.195923,319.543213 345.488068,321.046021 
	C342.375885,322.773254 339.131348,324.304321 336.211456,326.309601 
	C335.346527,326.903656 334.677826,329.165649 335.125336,330.059204 
	C337.618408,335.036835 340.312164,339.939514 343.348419,344.600006 
	C344.038116,345.658661 346.439484,346.211273 347.897186,345.986481 
	C349.309143,345.768738 350.520508,344.250061 351.869598,343.266632 
	C350.443085,340.114044 349.111450,337.171112 348.213898,333.667267 
	C348.323090,333.457581 348.432281,333.247864 349.202209,333.358398 
M139.663696,288.786987 
	C139.454132,288.675598 139.244568,288.564209 139.351227,287.816986 
	C141.556610,285.951843 143.761978,284.086700 145.533020,282.588867 
	C144.347534,276.743103 141.714203,275.003876 136.755920,277.793488 
	C135.575684,278.457489 133.829056,278.114777 132.342926,278.235107 
	C134.461838,275.574249 137.866302,274.246246 138.756516,271.945404 
	C139.565948,269.853363 137.642502,266.703918 136.789856,263.520630 
	C128.541977,270.083527 121.285301,275.857727 114.368942,281.361115 
	C115.900620,286.637787 118.368675,289.619904 124.344910,288.198608 
	C124.559525,288.300476 124.774139,288.402374 124.659950,289.143616 
	C123.920670,289.802124 123.057533,290.367188 122.472832,291.142334 
	C121.706955,292.157623 120.347252,293.884705 120.661835,294.353546 
	C121.988457,296.330566 124.148941,299.663269 125.453949,299.429352 
	C134.019562,297.893951 142.442139,295.560547 150.967743,293.473877 
	C148.583557,286.862518 148.591461,286.884552 142.659866,289.011444 
	C141.917145,289.277771 141.038467,289.164948 139.663696,288.786987 
M421.242004,239.895065 
	C426.966187,233.848724 430.688965,227.796204 427.590698,218.504440 
	C424.034485,207.839386 416.075348,204.511215 406.797577,204.782104 
	C401.999817,204.922180 396.015289,208.381042 392.879822,212.226395 
	C386.582886,219.949005 386.445343,229.467300 394.362396,237.779602 
	C401.851685,245.642700 412.234436,246.428299 421.242004,239.895065 
M116.389313,201.097610 
	C110.025833,201.651978 104.226723,203.566010 100.145508,208.774704 
	C92.519127,218.507919 95.514145,232.155289 107.223274,238.783722 
	C114.808296,243.077530 123.001945,241.620712 131.451462,233.794144 
	C134.854752,230.641769 136.174301,218.088135 134.209900,213.435211 
	C130.969971,205.761047 124.828598,202.564240 116.389313,201.097610 
M317.511200,337.328644 
	C315.416779,337.634186 313.331360,338.042603 311.226349,338.227020 
	C303.109894,338.938171 298.327942,345.662903 302.453674,351.192383 
	C305.511688,355.290833 306.128571,359.061279 304.574493,363.776062 
	C304.222626,364.843536 305.665375,367.106384 306.883759,367.977570 
	C311.016022,370.932312 317.880798,370.152344 322.201782,365.608459 
	C324.197113,363.510223 325.453217,359.881226 325.469513,356.937561 
	C325.490021,353.223694 322.061432,352.662994 318.820129,352.864868 
	C318.429291,352.889221 318.006989,352.407745 317.323822,351.993835 
	C318.845703,348.299347 320.339508,344.672943 322.327423,339.847046 
	C321.584534,339.353668 319.952881,338.270081 317.511200,337.328644 
M113.214127,164.551208 
	C110.733582,169.368347 108.253029,174.185486 105.945312,178.666977 
	C106.650307,179.608063 106.794670,180.021805 107.054337,180.115280 
	C114.989761,182.971832 122.922462,185.838318 130.907684,188.549835 
	C131.559006,188.771011 133.188507,188.062317 133.334183,187.512817 
	C134.487366,183.163101 136.673447,178.576248 136.115143,174.385635 
	C134.778976,164.356567 122.934311,159.270706 113.214127,164.551208 
M165.002228,337.744507 
	C166.328964,337.760071 167.673706,337.923767 168.979218,337.764862 
	C173.883881,337.167877 179.651230,331.839325 180.620880,326.868011 
	C181.564087,322.032257 178.824432,319.254578 174.450546,317.488495 
	C176.461716,314.783295 178.271912,312.348450 180.234207,309.709015 
	C177.884155,308.024750 175.919708,306.616852 173.493729,304.878174 
	C166.998398,312.598511 160.605026,320.197662 153.392853,328.770020 
	C157.083328,331.814972 160.642654,334.751770 165.002228,337.744507 
M168.424103,107.098854 
	C163.614044,103.706184 158.575760,103.649117 154.849823,106.945076 
	C149.924484,111.302017 148.359070,116.379936 151.604034,121.340576 
	C153.947342,124.922844 157.263199,128.236008 160.864975,130.548096 
	C167.441299,134.769669 176.497299,129.206482 176.896774,121.328613 
	C177.220840,114.938232 173.628815,110.906738 168.424103,107.098854 
M190.370926,94.060936 
	C187.585922,92.045456 184.602356,91.402260 181.672714,93.505791 
	C178.969406,95.446823 176.363388,97.576698 174.004211,99.915627 
	C173.143250,100.769196 172.346481,102.991501 172.827759,103.694786 
	C178.091141,111.386459 183.613617,118.900856 189.350830,126.859039 
	C191.562500,125.117226 193.553528,123.549164 195.738297,121.828537 
	C194.332504,119.523308 193.092346,117.489685 191.856689,115.463417 
	C199.957779,108.746887 197.790115,100.125130 190.370926,94.060936 
M354.483978,131.585892 
	C355.730560,131.585892 356.977112,131.585892 358.223694,131.585892 
	C357.932892,131.916367 357.642090,132.246841 357.351288,132.577316 
	C359.514130,134.749985 361.676971,136.922653 363.925598,139.181503 
	C367.747253,134.617279 371.243744,130.688141 374.447784,126.533455 
	C376.831879,123.441963 376.303680,118.707977 373.617645,116.641632 
	C370.364075,114.138672 367.041809,111.724991 363.384399,109.000916 
	C358.501801,115.004295 353.679199,120.933876 348.810028,126.920723 
	C350.858673,128.572525 352.382355,129.801071 354.483978,131.585892 
M288.454620,364.587738 
	C289.441559,368.209229 291.865417,368.151184 294.524200,366.744995 
	C295.734100,366.105042 297.624908,364.794495 297.534332,363.972504 
	C296.962250,358.781769 295.899078,353.646393 295.041473,348.485504 
	C294.394104,344.589691 291.586823,344.094543 288.392517,344.158813 
	C286.870728,344.189453 285.345306,344.317169 283.828186,344.249939 
	C277.765350,343.981323 275.974548,345.726624 276.320190,351.882477 
	C276.570129,356.333679 276.750732,360.807312 277.367432,365.214264 
	C278.016998,369.856110 281.803101,367.317413 284.194092,367.522614 
	C284.754120,367.570709 286.026978,365.214386 286.103271,363.913269 
	C286.351135,359.688599 286.195953,355.440308 286.195953,351.201111 
	C286.519958,351.193604 286.843964,351.186096 287.167969,351.178589 
	C287.550232,355.371796 287.932465,359.565033 288.454620,364.587738 
M266.636536,342.004364 
	C263.512238,341.727814 260.382690,341.229462 257.266632,341.302979 
	C256.265350,341.326569 254.514786,342.796448 254.441910,343.711029 
	C253.863327,350.972748 253.512268,358.258087 253.355942,365.541840 
	C253.333191,366.601379 254.607864,368.522064 255.462784,368.631317 
	C260.814423,369.315277 266.217316,369.598175 271.795227,370.028656 
	C271.795227,368.017761 271.795227,366.748688 271.795227,365.508789 
	C259.234009,363.662445 261.322327,363.076355 263.519958,357.757355 
	C265.688171,357.757355 267.972931,357.757355 270.400452,357.757355 
	C270.400452,356.107452 270.400452,354.738190 270.400452,353.399261 
	C262.457764,352.662811 262.376862,352.581848 263.658081,346.783783 
	C265.120331,346.783783 266.607208,346.783813 268.094086,346.783813 
	C269.582794,346.783813 271.071503,346.783783 272.653564,346.783783 
	C273.017029,345.255676 273.346313,343.871216 273.787231,342.017548 
	C271.499817,342.017548 269.516479,342.017548 266.636536,342.004364 
M130.209686,143.536240 
	C126.841621,146.221069 124.500549,149.363556 125.796791,153.991119 
	C127.427055,159.811157 134.495071,164.771500 140.142746,163.750488 
	C145.760651,162.734894 148.609924,158.306335 149.627792,151.384354 
	C149.761490,150.475082 148.711044,148.837128 147.841690,148.508545 
	C147.132828,148.240601 145.553238,149.181351 144.921249,150.012909 
	C143.118103,152.385452 142.081238,155.665512 137.482422,154.895981 
	C138.843079,151.383698 140.073654,148.207214 141.279251,145.095200 
	C136.854843,141.680191 135.994476,141.519348 130.209686,143.536240 
M371.010986,149.435440 
	C373.145325,151.130753 375.279694,152.826050 377.534180,154.616791 
	C379.273010,152.764572 382.269409,151.600647 378.277496,148.652802 
	C376.861694,147.607285 377.013306,144.439178 376.449371,142.240067 
	C376.903900,141.994843 377.358398,141.749634 377.812897,141.504410 
	C379.106049,142.642624 380.439697,143.738419 381.684875,144.926895 
	C385.593109,148.657303 388.642151,148.187332 390.054901,142.901169 
	C390.715027,140.431259 390.135223,136.786072 388.648773,134.741165 
	C383.770477,128.030243 375.388489,128.980957 370.112213,136.382935 
	C366.505096,141.443344 366.582428,144.095169 371.010986,149.435440 
M372.858185,307.800537 
	C368.990631,305.068054 365.363403,304.222717 361.081970,307.557220 
	C353.283203,313.631134 359.301239,325.415466 365.629547,327.763763 
	C370.747772,329.663086 379.084045,325.498901 380.636841,320.039459 
	C380.861389,319.250000 380.255859,317.675262 379.582153,317.318848 
	C378.745453,316.876160 377.136353,316.911865 376.388214,317.460266 
	C373.734711,319.405487 371.340790,321.902679 367.999786,318.759735 
	C369.659912,317.022308 370.975281,315.071136 372.789703,313.880463 
	C375.559113,312.063110 375.353149,310.376007 372.858185,307.800537 
M390.220245,301.218750 
	C388.819611,301.563049 387.419006,301.907379 386.018372,302.251709 
	C385.759705,301.856262 385.501038,301.460815 385.242340,301.065399 
	C387.052063,298.270691 388.861786,295.476013 390.650970,292.713074 
	C386.695953,286.935425 381.503815,287.255798 377.422394,290.398865 
	C372.484283,294.201599 372.190918,299.335052 376.232056,305.175110 
	C379.810516,310.346558 386.395416,312.849030 390.193420,309.740906 
	C393.397400,307.118927 395.682281,303.373779 398.703247,299.728394 
	C396.313477,298.456848 395.058868,297.789276 393.992584,297.221954 
	C392.820740,298.612213 391.867706,299.742889 390.220245,301.218750 
M152.627579,314.831451 
	C154.005005,315.336365 156.430389,316.505890 156.597122,316.243011 
	C158.194168,313.724701 160.782150,310.736084 160.382294,308.332031 
	C159.897766,305.418976 157.312775,301.569366 154.708389,300.587646 
	C150.506088,299.003601 145.282486,299.204529 141.853027,303.159332 
	C135.506271,310.478302 136.194748,314.577209 144.009247,321.176941 
	C147.517563,324.139923 147.470825,324.195251 150.256119,320.076263 
	C145.009674,314.515930 144.865631,313.924866 148.790863,310.029449 
	C149.887283,311.445984 150.996353,312.878815 152.627579,314.831451 
M198.263290,97.450546 
	C201.601669,98.451263 204.940048,99.451973 208.278412,100.452690 
	C208.330139,100.859528 208.381851,101.266365 208.433563,101.673203 
	C205.839035,102.442589 203.244507,103.211983 200.649979,103.981369 
	C200.462387,104.447968 200.274780,104.914558 200.087173,105.381157 
	C201.734543,106.215141 203.441147,107.855202 205.018707,107.739281 
	C210.882767,107.308334 215.515335,103.451866 215.738693,99.498001 
	C216.055878,93.883736 213.236801,91.699669 202.966141,89.279678 
	C204.472717,88.533302 206.145309,88.328239 207.635956,87.694923 
	C208.494354,87.330200 209.660645,86.219894 209.601059,85.540558 
	C209.528214,84.710152 208.011185,83.187149 207.643845,83.328499 
	C203.941025,84.753326 199.826080,85.826431 196.867050,88.262001 
	C193.926483,90.682381 195.030350,94.231552 198.263290,97.450546 
M146.904221,122.710472 
	C145.255951,123.592422 143.607681,124.474365 141.819916,125.430946 
	C144.253784,128.826508 146.224304,131.575607 148.194809,134.324722 
	C144.883743,133.898727 142.289261,131.386490 140.032745,131.660217 
	C137.747238,131.937485 135.795914,134.969696 132.851440,137.532135 
	C140.999969,140.662277 147.480255,143.392029 154.160568,145.482697 
	C155.283295,145.834061 157.626419,143.684265 158.732391,142.191360 
	C159.450882,141.221512 159.571579,138.897247 158.889542,137.953598 
	C155.241821,132.906799 151.257233,128.103485 146.904221,122.710472 
M401.903625,283.719147 
	C399.518341,281.841553 397.133026,279.963989 394.582367,277.956238 
	C396.076721,276.666321 397.480347,275.454681 399.290833,273.891876 
	C396.893280,272.106018 394.864929,270.595184 392.425751,268.778351 
	C389.469482,273.040985 386.703003,277.029999 383.726044,281.322510 
	C390.192230,285.775757 396.172852,289.894653 402.560730,294.293976 
	C404.321808,291.632843 405.792084,289.411072 407.323700,287.096649 
	C405.266846,285.839417 403.882935,284.993530 401.903625,283.719147 
z"/>
<path fill="#F0433B" opacity="1.000000" stroke="none" 
	d="
M420.880615,239.987701 
	C412.234436,246.428299 401.851685,245.642700 394.362396,237.779602 
	C386.445343,229.467300 386.582886,219.949005 392.879822,212.226395 
	C396.015289,208.381042 401.999817,204.922180 406.797577,204.782104 
	C416.075348,204.511215 424.034485,207.839386 427.590698,218.504440 
	C430.688965,227.796204 426.966187,233.848724 420.880615,239.987701 
z"/>
<path fill="#F0433B" opacity="1.000000" stroke="none" 
	d="
M116.805740,201.137726 
	C124.828598,202.564240 130.969971,205.761047 134.209900,213.435211 
	C136.174301,218.088135 134.854752,230.641769 131.451462,233.794144 
	C123.001945,241.620712 114.808296,243.077530 107.223274,238.783722 
	C95.514145,232.155289 92.519127,218.507919 100.145508,208.774704 
	C104.226723,203.566010 110.025833,201.651978 116.805740,201.137726 
z"/>
<path fill="#D0E0FC" opacity="1.000000" stroke="none" 
	d="
M123.769791,287.777618 
	C118.368675,289.619904 115.900620,286.637787 114.368942,281.361115 
	C121.285301,275.857727 128.541977,270.083527 136.789856,263.520630 
	C137.642502,266.703918 139.565948,269.853363 138.756516,271.945404 
	C137.866302,274.246246 134.461838,275.574249 132.342926,278.235107 
	C133.829056,278.114777 135.575684,278.457489 136.755920,277.793488 
	C141.714203,275.003876 144.347534,276.743103 145.533020,282.588867 
	C143.761978,284.086700 141.556610,285.951843 138.887299,288.246338 
	C137.702209,288.942474 136.981049,289.209259 136.259888,289.476013 
	C136.338638,289.725189 136.417404,289.974396 136.496155,290.223602 
	C137.738373,289.891663 138.980576,289.559723 140.222778,289.227783 
	C141.038467,289.164948 141.917145,289.277771 142.659866,289.011444 
	C148.591461,286.884552 148.583557,286.862518 150.967743,293.473877 
	C142.442139,295.560547 134.019562,297.893951 125.453949,299.429352 
	C124.148941,299.663269 121.988457,296.330566 120.661835,294.353546 
	C120.347252,293.884705 121.706955,292.157623 122.472832,291.142334 
	C123.057533,290.367188 123.920670,289.802124 125.121414,288.679535 
	C125.564713,287.760040 125.546547,287.304596 125.528381,286.849182 
	C124.942184,287.158661 124.355988,287.468140 123.769791,287.777618 
z"/>
<path fill="#D0E0FC" opacity="1.000000" stroke="none" 
	d="
M317.916229,337.257568 
	C319.952881,338.270081 321.584534,339.353668 322.327423,339.847046 
	C320.339508,344.672943 318.845703,348.299347 317.323822,351.993835 
	C318.006989,352.407745 318.429291,352.889221 318.820129,352.864868 
	C322.061432,352.662994 325.490021,353.223694 325.469513,356.937561 
	C325.453217,359.881226 324.197113,363.510223 322.201782,365.608459 
	C317.880798,370.152344 311.016022,370.932312 306.883759,367.977570 
	C305.665375,367.106384 304.222626,364.843536 304.574493,363.776062 
	C306.128571,359.061279 305.511688,355.290833 302.453674,351.192383 
	C298.327942,345.662903 303.109894,338.938171 311.226349,338.227020 
	C313.331360,338.042603 315.416779,337.634186 317.916229,337.257568 
z"/>
<path fill="#D0E0FC" opacity="1.000000" stroke="none" 
	d="
M339.881836,117.070213 
	C333.472443,124.366096 322.179871,122.952568 318.440704,114.165298 
	C317.818665,112.703514 318.351410,109.460091 319.435242,108.787231 
	C323.997681,105.954811 326.084656,102.408051 326.306061,96.919296 
	C326.512482,91.801758 334.303314,89.170670 339.244324,92.158501 
	C341.893982,93.760757 344.538147,95.421745 346.939941,97.359657 
	C347.889832,98.126083 348.910919,100.010269 348.573303,100.856140 
	C348.166077,101.876396 346.349091,102.333916 344.686737,102.107918 
	C343.383057,103.686707 342.079407,105.265495 340.090515,106.916550 
	C338.600861,107.312050 337.796417,107.635284 336.991943,107.958519 
	C336.991943,107.958519 336.992676,108.001472 336.715424,107.799866 
	C335.510193,107.487091 334.582214,107.375923 333.654205,107.264755 
	C333.606079,107.515846 333.557922,107.766945 333.509766,108.018036 
	C334.645538,108.361855 335.781311,108.705666 336.917084,109.049484 
	C336.917084,109.049492 336.986328,109.021278 337.083771,109.348145 
	C337.756348,109.801155 338.331451,109.927284 338.906586,110.053421 
	C338.906586,110.053421 338.981873,110.029457 338.987549,110.329834 
	C339.290161,110.765533 339.587158,110.900864 339.884125,111.036194 
	C339.884125,111.036194 339.961456,111.019875 339.888885,111.479355 
	C339.838165,113.649292 339.860016,115.359749 339.881836,117.070213 
z"/>
<path fill="#D0E0FC" opacity="1.000000" stroke="none" 
	d="
M113.502525,164.302643 
	C122.934311,159.270706 134.778976,164.356567 136.115143,174.385635 
	C136.673447,178.576248 134.487366,183.163101 133.334183,187.512817 
	C133.188507,188.062317 131.559006,188.771011 130.907684,188.549835 
	C122.922462,185.838318 114.989761,182.971832 107.054337,180.115280 
	C106.794670,180.021805 106.650307,179.608063 105.945312,178.666977 
	C108.253029,174.185486 110.733582,169.368347 113.502525,164.302643 
M122.333282,175.885818 
	C124.957619,176.817703 127.581955,177.749588 131.477127,179.132721 
	C128.558014,172.245712 123.348335,171.837952 118.749756,170.798569 
	C117.416832,170.497314 115.719376,171.808914 114.189026,172.381134 
	C114.306580,172.914276 114.424141,173.447433 114.541702,173.980591 
	C116.885742,174.548111 119.229774,175.115646 122.333282,175.885818 
z"/>
<path fill="#D0E0FC" opacity="1.000000" stroke="none" 
	d="
M164.602112,337.716522 
	C160.642654,334.751770 157.083328,331.814972 153.392853,328.770020 
	C160.605026,320.197662 166.998398,312.598511 173.493729,304.878174 
	C175.919708,306.616852 177.884155,308.024750 180.234207,309.709015 
	C178.271912,312.348450 176.461716,314.783295 174.450546,317.488495 
	C178.824432,319.254578 181.564087,322.032257 180.620880,326.868011 
	C179.651230,331.839325 173.883881,337.167877 168.979218,337.764862 
	C167.673706,337.923767 166.328964,337.760071 164.602112,337.716522 
M168.572556,329.243927 
	C170.394547,327.150055 173.185410,325.342133 170.688858,321.502899 
	C167.978668,324.689880 165.492249,327.613739 163.005844,330.537567 
	C163.171906,330.858276 163.337952,331.178955 163.504013,331.499664 
	C165.014771,330.931580 166.525513,330.363525 168.572556,329.243927 
z"/>
<path fill="#D0E0FC" opacity="1.000000" stroke="none" 
	d="
M168.773926,107.194046 
	C173.628815,110.906738 177.220840,114.938232 176.896774,121.328613 
	C176.497299,129.206482 167.441299,134.769669 160.864975,130.548096 
	C157.263199,128.236008 153.947342,124.922844 151.604034,121.340576 
	C148.359070,116.379936 149.924484,111.302017 154.849823,106.945076 
	C158.575760,103.649117 163.614044,103.706184 168.773926,107.194046 
M159.018768,111.278229 
	C158.414841,112.524979 156.994675,114.159531 157.366730,114.942589 
	C158.316605,116.941910 159.862839,118.790794 161.543839,120.277817 
	C163.896027,122.358582 166.586960,124.056419 169.132965,125.918083 
	C169.599319,125.359100 170.065674,124.800117 170.532028,124.241142 
	C169.270798,118.172905 163.985352,115.316994 159.018768,111.278229 
z"/>
<path fill="#D0E0FC" opacity="1.000000" stroke="none" 
	d="
M190.730347,94.166611 
	C197.790115,100.125130 199.957779,108.746887 191.856689,115.463417 
	C193.092346,117.489685 194.332504,119.523308 195.738297,121.828537 
	C193.553528,123.549164 191.562500,125.117226 189.350830,126.859039 
	C183.613617,118.900856 178.091141,111.386459 172.827759,103.694786 
	C172.346481,102.991501 173.143250,100.769196 174.004211,99.915627 
	C176.363388,97.576698 178.969406,95.446823 181.672714,93.505791 
	C184.602356,91.402260 187.585922,92.045456 190.730347,94.166611 
M183.676392,104.541794 
	C185.221298,106.590691 186.766190,108.639595 188.311081,110.688492 
	C188.857620,110.464981 189.404144,110.241470 189.950684,110.017967 
	C189.280090,107.975822 189.037704,105.613754 187.818298,103.981651 
	C186.603043,102.355103 184.407883,101.460678 182.642349,100.245255 
	C182.343903,100.651909 182.045471,101.058556 181.747025,101.465210 
	C182.302856,102.248871 182.858688,103.032524 183.676392,104.541794 
z"/>
<path fill="#B0CAFB" opacity="1.000000" stroke="none" 
	d="
M302.031830,100.945114 
	C296.286377,99.902245 290.564301,98.691971 284.785828,97.885857 
	C281.817108,97.471718 280.993408,96.941040 281.753540,93.529915 
	C283.105896,87.460953 283.672180,81.181526 284.114624,74.957947 
	C284.394073,71.027824 284.852875,68.754677 289.808044,70.047089 
	C294.317352,71.223221 299.101379,71.346169 303.972809,71.959625 
	C303.304779,74.060623 302.872131,75.421402 302.417297,76.851906 
	C299.241394,76.547485 296.256836,76.261414 293.285126,75.976570 
	C292.453247,81.887947 292.453247,81.887947 299.259735,82.467041 
	C300.072571,87.073853 300.072571,87.073853 292.099518,87.210823 
	C291.670197,88.890381 291.231567,90.606514 290.727478,92.578583 
	C294.502960,93.449944 298.119202,94.284561 301.957428,95.170410 
	C302.970673,91.742882 304.217316,87.525734 305.825104,83.526138 
	C304.801422,89.477493 303.416626,95.211304 302.031830,100.945114 
z"/>
<path fill="#C9DBFC" opacity="1.000000" stroke="none" 
	d="
M354.195007,131.307739 
	C352.382355,129.801071 350.858673,128.572525 348.810028,126.920723 
	C353.679199,120.933876 358.501801,115.004295 363.384399,109.000916 
	C367.041809,111.724991 370.364075,114.138672 373.617645,116.641632 
	C376.303680,118.707977 376.831879,123.441963 374.447784,126.533455 
	C371.243744,130.688141 367.747253,134.617279 363.925598,139.181503 
	C361.676971,136.922653 359.514130,134.749985 357.351288,132.577316 
	C357.642090,132.246841 357.932892,131.916367 358.223694,131.585892 
	C356.977112,131.585892 355.730560,131.585892 354.195007,131.307739 
M364.531067,125.210060 
	C365.483551,123.567078 366.436035,121.924103 367.388519,120.281120 
	C366.913818,120.002693 366.439117,119.724258 365.964417,119.445824 
	C364.077057,121.949127 362.189697,124.452431 360.302338,126.955727 
	C360.674225,127.253967 361.046143,127.552208 361.418060,127.850441 
	C362.269745,127.174278 363.121429,126.498108 364.531067,125.210060 
M361.123260,129.217697 
	C360.827637,128.657440 360.531982,128.097168 360.236328,127.536919 
	C359.304077,128.675446 358.371826,129.813965 357.439575,130.952499 
	C357.760834,131.221832 358.082092,131.491165 358.403320,131.760498 
	C359.148987,131.188873 359.894623,130.617233 361.123260,129.217697 
z"/>
<path fill="#C9DBFC" opacity="1.000000" stroke="none" 
	d="
M288.384674,364.173004 
	C287.932465,359.565033 287.550232,355.371796 287.167969,351.178589 
	C286.843964,351.186096 286.519958,351.193604 286.195953,351.201111 
	C286.195953,355.440308 286.351135,359.688599 286.103271,363.913269 
	C286.026978,365.214386 284.754120,367.570709 284.194092,367.522614 
	C281.803101,367.317413 278.016998,369.856110 277.367432,365.214264 
	C276.750732,360.807312 276.570129,356.333679 276.320190,351.882477 
	C275.974548,345.726624 277.765350,343.981323 283.828186,344.249939 
	C285.345306,344.317169 286.870728,344.189453 288.392517,344.158813 
	C291.586823,344.094543 294.394104,344.589691 295.041473,348.485504 
	C295.899078,353.646393 296.962250,358.781769 297.534332,363.972504 
	C297.624908,364.794495 295.734100,366.105042 294.524200,366.744995 
	C291.865417,368.151184 289.441559,368.209229 288.384674,364.173004 
z"/>
<path fill="#CBDCFB" opacity="1.000000" stroke="none" 
	d="
M347.779816,334.228180 
	C349.111450,337.171112 350.443085,340.114044 351.869598,343.266632 
	C350.520508,344.250061 349.309143,345.768738 347.897186,345.986481 
	C346.439484,346.211273 344.038116,345.658661 343.348419,344.600006 
	C340.312164,339.939514 337.618408,335.036835 335.125336,330.059204 
	C334.677826,329.165649 335.346527,326.903656 336.211456,326.309601 
	C339.131348,324.304321 342.375885,322.773254 345.488068,321.046021 
	C348.195923,319.543213 350.786102,319.732544 352.497284,322.352051 
	C355.442535,326.860626 358.340332,331.451813 360.586090,336.318390 
	C360.991730,337.197418 358.357666,339.789551 356.737885,341.115540 
	C356.208527,341.548889 353.991425,340.837799 353.335510,340.018311 
	C351.714478,337.993042 350.550110,335.602264 348.764893,332.880066 
	C347.560913,330.844940 346.794250,329.288147 346.027588,327.731354 
	C345.441620,328.055176 344.855652,328.378998 344.269684,328.702850 
	C345.439728,330.544617 346.609772,332.386414 347.779816,334.228180 
z"/>
<path fill="#C9DBFC" opacity="1.000000" stroke="none" 
	d="
M267.084839,342.010956 
	C269.516479,342.017548 271.499817,342.017548 273.787231,342.017548 
	C273.346313,343.871216 273.017029,345.255676 272.653564,346.783783 
	C271.071503,346.783783 269.582794,346.783813 268.094086,346.783813 
	C266.607208,346.783813 265.120331,346.783783 263.658081,346.783783 
	C262.376862,352.581848 262.457764,352.662811 270.400452,353.399261 
	C270.400452,354.738190 270.400452,356.107452 270.400452,357.757355 
	C267.972931,357.757355 265.688171,357.757355 263.519958,357.757355 
	C261.322327,363.076355 259.234009,363.662445 271.795227,365.508789 
	C271.795227,366.748688 271.795227,368.017761 271.795227,370.028656 
	C266.217316,369.598175 260.814423,369.315277 255.462784,368.631317 
	C254.607864,368.522064 253.333191,366.601379 253.355942,365.541840 
	C253.512268,358.258087 253.863327,350.972748 254.441910,343.711029 
	C254.514786,342.796448 256.265350,341.326569 257.266632,341.302979 
	C260.382690,341.229462 263.512238,341.727814 267.084839,342.010956 
z"/>
<path fill="#C9DBFC" opacity="1.000000" stroke="none" 
	d="
M387.562439,173.983551 
	C385.796814,171.780853 384.053131,169.560104 382.260651,167.379471 
	C379.257935,163.726562 379.019501,157.870392 381.757538,154.148224 
	C384.781006,150.037964 391.963470,147.839142 396.648895,149.589371 
	C400.830811,151.151520 403.490234,155.270325 402.650879,159.803055 
	C402.290131,161.751099 401.128662,163.863403 399.689392,165.220779 
	C397.852051,166.953583 395.578430,168.082031 393.856079,164.425705 
	C392.994812,162.597366 391.050659,161.279144 388.399017,159.999969 
	C388.399017,161.733368 387.682007,164.058807 388.533051,165.089478 
	C391.118530,168.220688 390.841858,170.808731 388.677917,173.804276 
	C389.059906,174.041946 389.053070,173.959412 388.641357,173.630966 
	C387.960144,173.527618 387.690674,173.752731 387.455811,173.996704 
	C387.490417,174.015579 387.562439,173.983551 387.562439,173.983551 
z"/>
<path fill="#C9DBFC" opacity="1.000000" stroke="none" 
	d="
M130.510254,143.284973 
	C135.994476,141.519348 136.854843,141.680191 141.279251,145.095200 
	C140.073654,148.207214 138.843079,151.383698 137.482422,154.895981 
	C142.081238,155.665512 143.118103,152.385452 144.921249,150.012909 
	C145.553238,149.181351 147.132828,148.240601 147.841690,148.508545 
	C148.711044,148.837128 149.761490,150.475082 149.627792,151.384354 
	C148.609924,158.306335 145.760651,162.734894 140.142746,163.750488 
	C134.495071,164.771500 127.427055,159.811157 125.796791,153.991119 
	C124.500549,149.363556 126.841621,146.221069 130.510254,143.284973 
z"/>
<path fill="#C9DBFC" opacity="1.000000" stroke="none" 
	d="
M370.744507,149.180298 
	C366.582428,144.095169 366.505096,141.443344 370.112213,136.382935 
	C375.388489,128.980957 383.770477,128.030243 388.648773,134.741165 
	C390.135223,136.786072 390.715027,140.431259 390.054901,142.901169 
	C388.642151,148.187332 385.593109,148.657303 381.684875,144.926895 
	C380.439697,143.738419 379.106049,142.642624 377.812897,141.504410 
	C377.358398,141.749634 376.903900,141.994843 376.449371,142.240067 
	C377.013306,144.439178 376.861694,147.607285 378.277496,148.652802 
	C382.269409,151.600647 379.273010,152.764572 377.534180,154.616791 
	C375.279694,152.826050 373.145325,151.130753 370.744507,149.180298 
z"/>
<path fill="#C9DBFC" opacity="1.000000" stroke="none" 
	d="
M373.126953,308.037598 
	C375.353149,310.376007 375.559113,312.063110 372.789703,313.880463 
	C370.975281,315.071136 369.659912,317.022308 367.999786,318.759735 
	C371.340790,321.902679 373.734711,319.405487 376.388214,317.460266 
	C377.136353,316.911865 378.745453,316.876160 379.582153,317.318848 
	C380.255859,317.675262 380.861389,319.250000 380.636841,320.039459 
	C379.084045,325.498901 370.747772,329.663086 365.629547,327.763763 
	C359.301239,325.415466 353.283203,313.631134 361.081970,307.557220 
	C365.363403,304.222717 368.990631,305.068054 373.126953,308.037598 
z"/>
<path fill="#CBDCFB" opacity="1.000000" stroke="none" 
	d="
M390.567474,301.046143 
	C391.867706,299.742889 392.820740,298.612213 393.992584,297.221954 
	C395.058868,297.789276 396.313477,298.456848 398.703247,299.728394 
	C395.682281,303.373779 393.397400,307.118927 390.193420,309.740906 
	C386.395416,312.849030 379.810516,310.346558 376.232056,305.175110 
	C372.190918,299.335052 372.484283,294.201599 377.422394,290.398865 
	C381.503815,287.255798 386.695953,286.935425 390.650970,292.713074 
	C388.861786,295.476013 387.052063,298.270691 385.242340,301.065399 
	C385.501038,301.460815 385.759705,301.856262 386.018372,302.251709 
	C387.419006,301.907379 388.819611,301.563049 390.567474,301.046143 
z"/>
<path fill="#D0E0FC" opacity="1.000000" stroke="none" 
	d="
M152.366486,314.571533 
	C150.996353,312.878815 149.887283,311.445984 148.790863,310.029449 
	C144.865631,313.924866 145.009674,314.515930 150.256119,320.076263 
	C147.470825,324.195251 147.517563,324.139923 144.009247,321.176941 
	C136.194748,314.577209 135.506271,310.478302 141.853027,303.159332 
	C145.282486,299.204529 150.506088,299.003601 154.708389,300.587646 
	C157.312775,301.569366 159.897766,305.418976 160.382294,308.332031 
	C160.782150,310.736084 158.194168,313.724701 156.597122,316.243011 
	C156.430389,316.505890 154.005005,315.336365 152.366486,314.571533 
z"/>
<path fill="#C2D6FC" opacity="1.000000" stroke="none" 
	d="
M197.987427,97.179970 
	C195.030350,94.231552 193.926483,90.682381 196.867050,88.262001 
	C199.826080,85.826431 203.941025,84.753326 207.643845,83.328499 
	C208.011185,83.187149 209.528214,84.710152 209.601059,85.540558 
	C209.660645,86.219894 208.494354,87.330200 207.635956,87.694923 
	C206.145309,88.328239 204.472717,88.533302 202.966141,89.279678 
	C213.236801,91.699669 216.055878,93.883736 215.738693,99.498001 
	C215.515335,103.451866 210.882767,107.308334 205.018707,107.739281 
	C203.441147,107.855202 201.734543,106.215141 200.087173,105.381157 
	C200.274780,104.914558 200.462387,104.447968 200.649979,103.981369 
	C203.244507,103.211983 205.839035,102.442589 208.433563,101.673203 
	C208.381851,101.266365 208.330139,100.859528 208.278412,100.452690 
	C204.940048,99.451973 201.601669,98.451263 197.987427,97.179970 
z"/>
<path fill="#CBDCFB" opacity="1.000000" stroke="none" 
	d="
M147.146667,122.963242 
	C151.257233,128.103485 155.241821,132.906799 158.889542,137.953598 
	C159.571579,138.897247 159.450882,141.221512 158.732391,142.191360 
	C157.626419,143.684265 155.283295,145.834061 154.160568,145.482697 
	C147.480255,143.392029 140.999969,140.662277 132.851440,137.532135 
	C135.795914,134.969696 137.747238,131.937485 140.032745,131.660217 
	C142.289261,131.386490 144.883743,133.898727 148.194809,134.324722 
	C146.224304,131.575607 144.253784,128.826508 141.819916,125.430946 
	C143.607681,124.474365 145.255951,123.592422 147.146667,122.963242 
z"/>
<path fill="#FDFEFF" opacity="1.000000" stroke="none" 
	d="
M302.019531,100.970161 
	C303.416626,95.211304 304.801422,89.477493 306.141724,83.313675 
	C306.097198,82.883675 306.106201,82.542274 306.447937,82.240692 
	C307.590332,81.381516 308.391022,80.823929 309.191711,80.266342 
	C309.191711,80.266350 309.646423,80.145348 310.044250,80.238762 
	C310.442078,80.332176 310.742218,80.130661 310.742218,80.130661 
	C310.742218,80.130661 310.961182,80.106880 311.134521,80.529770 
	C314.798859,81.986679 318.289917,83.020691 321.780945,84.054703 
	C321.780945,84.054710 321.946289,84.054222 321.906006,84.519081 
	C321.952240,87.318016 322.232513,89.665573 322.071411,91.982430 
	C321.906281,94.357361 321.309143,96.702263 320.901093,99.060303 
	C320.901093,99.060303 320.871216,99.428909 320.488129,99.805130 
	C318.557770,101.604111 319.765564,105.449142 315.964691,104.890541 
	C315.964691,104.890541 315.619995,104.866417 315.323730,104.452682 
	C314.556458,102.519707 313.515900,100.913612 313.731628,99.499092 
	C314.197083,96.446884 315.414978,93.516281 316.071594,90.481087 
	C316.218536,89.801788 315.322998,88.896973 314.525635,88.015549 
	C313.051849,89.313934 311.959778,90.692757 310.633118,92.347000 
	C309.181641,96.968437 309.524689,102.874931 302.053528,100.964439 
	C302.053528,100.964439 302.007263,100.995209 302.019531,100.970161 
z"/>
<path fill="#C2D6FC" opacity="1.000000" stroke="none" 
	d="
M387.425537,174.305389 
	C387.562439,173.983551 387.490417,174.015579 387.645386,174.283051 
	C388.217957,174.353485 388.635498,174.156448 389.053070,173.959412 
	C389.053070,173.959412 389.059906,174.041946 389.025574,174.063965 
	C393.704590,171.950607 398.435760,169.853333 403.124207,167.664581 
	C405.664337,166.478745 407.655945,166.171600 408.932068,169.455017 
	C410.018768,172.251007 411.691803,174.817001 412.819733,177.600540 
	C413.095520,178.281158 412.518158,179.719757 411.872955,180.279556 
	C410.304474,181.640381 408.465729,182.689728 406.359863,184.119873 
	C405.472046,181.525314 404.709412,179.296555 403.872986,176.852219 
	C399.299072,179.104401 394.932709,181.254379 389.573334,183.893311 
	C388.787964,180.707962 388.038330,177.667603 387.425537,174.305389 
z"/>
<path fill="#C9DBFC" opacity="1.000000" stroke="none" 
	d="
M402.201355,283.933411 
	C403.882935,284.993530 405.266846,285.839417 407.323700,287.096649 
	C405.792084,289.411072 404.321808,291.632843 402.560730,294.293976 
	C396.172852,289.894653 390.192230,285.775757 383.726044,281.322510 
	C386.703003,277.029999 389.469482,273.040985 392.425751,268.778351 
	C394.864929,270.595184 396.893280,272.106018 399.290833,273.891876 
	C397.480347,275.454681 396.076721,276.666321 394.582367,277.956238 
	C397.133026,279.963989 399.518341,281.841553 402.201355,283.933411 
z"/>
<path fill="#D0E0FC" opacity="1.000000" stroke="none" 
	d="
M322.027771,325.405243 
	C322.800476,324.963684 323.573181,324.522125 325.038269,324.053650 
	C326.673950,323.963013 327.617249,323.899231 328.560516,323.835449 
	C328.560516,323.835449 328.976196,324.023987 328.982361,324.539734 
	C329.274933,326.031525 329.561340,327.007538 329.847748,327.983582 
	C332.958618,334.328552 335.954163,340.733887 339.231659,346.991577 
	C340.747498,349.885773 339.150146,350.761169 337.017578,351.713715 
	C334.887238,352.665283 332.864807,353.998627 331.496643,350.608917 
	C329.477966,345.607483 327.250854,340.690186 325.100769,335.016113 
	C325.745026,332.468597 326.421875,330.629852 323.206451,331.047058 
	C323.206451,331.047058 322.971069,331.070465 322.877136,330.759521 
	C322.605713,330.212708 322.370483,330.076294 322.077515,330.039337 
	C322.077515,330.039337 321.972717,330.024811 321.992065,329.596863 
	C322.016876,327.914368 322.022339,326.659790 322.027771,325.405243 
z"/>
<path fill="#3BB3F3" opacity="1.000000" stroke="none" 
	d="
M232.008331,337.976868 
	C232.976044,341.366302 233.943741,344.755737 234.490250,348.542389 
	C227.150894,344.625427 221.005493,344.551270 216.061676,351.864075 
	C212.917435,350.374817 209.976318,349.206024 207.015686,347.629639 
	C207.755981,344.093170 208.515823,340.964294 209.567017,337.882751 
	C210.253357,337.943359 210.648346,337.956665 211.361206,338.109833 
	C215.459198,340.118317 219.239349,341.986908 223.771515,344.227264 
	C222.960266,339.525665 222.318466,335.806183 222.032440,332.035370 
	C222.863297,331.932159 223.338394,331.880341 223.813492,331.828491 
	C226.460556,333.340759 229.107635,334.852997 231.430481,336.747192 
	C229.704391,338.356812 228.302536,339.584473 226.404465,341.246704 
	C228.308075,342.529449 229.531891,343.354126 232.008331,345.022888 
	C232.008331,341.746979 232.008331,339.861938 232.008331,337.976868 
z"/>
<path fill="#3BB3F3" opacity="1.000000" stroke="none" 
	d="
M257.883698,63.909424 
	C258.841156,64.384186 259.798584,64.858948 260.823425,65.992752 
	C259.046692,67.533875 257.277618,68.891006 255.342468,69.196556 
	C251.615433,69.785034 250.409836,71.692574 250.911316,75.206703 
	C251.046326,76.152809 250.798080,77.153610 250.356049,78.102325 
	C246.603348,79.420578 243.220337,80.765808 239.557587,81.926033 
	C238.172562,79.555000 237.067291,77.368973 235.988647,74.914734 
	C236.011795,74.466866 236.008316,74.287209 236.411163,74.078453 
	C241.029877,72.989220 245.242279,71.929092 250.980118,70.485069 
	C246.478256,67.428841 243.185303,65.193321 239.487762,62.962303 
	C237.736267,62.974792 236.389374,62.982784 235.042496,62.990776 
	C240.583252,61.767658 246.124023,60.544544 251.557068,59.920261 
	C251.532257,62.196053 251.615173,63.873009 251.698090,65.549957 
	C253.759964,65.003113 255.821823,64.456268 257.883698,63.909424 
z"/>
<path fill="#1197E8" opacity="1.000000" stroke="none" 
	d="
M235.962021,75.182945 
	C237.067291,77.368973 238.172562,79.555000 239.643707,82.269310 
	C243.002731,88.210571 245.995911,93.623543 248.994690,99.290665 
	C249.007004,99.714157 249.013687,99.883499 249.016296,100.248352 
	C249.012207,100.443863 249.007858,100.834938 249.007858,100.834930 
	C241.093353,94.136734 233.121292,87.504120 225.329514,80.666069 
	C224.224243,79.696098 223.995758,77.727043 224.023773,76.247696 
	C228.444717,75.910973 232.203369,75.546959 235.962021,75.182945 
z"/>
<path fill="#058ADA" opacity="1.000000" stroke="none" 
	d="
M216.264832,352.184540 
	C221.005493,344.551270 227.150894,344.625427 234.433289,348.946991 
	C234.213348,349.967682 233.882233,351.446045 233.006119,351.922791 
	C223.634674,357.022308 214.176987,361.963318 204.371887,366.715088 
	C204.000809,366.482391 203.981918,366.145264 204.270493,365.957031 
	C208.460999,361.240723 212.362915,356.712646 216.264832,352.184540 
z"/>
<path fill="#058ADA" opacity="1.000000" stroke="none" 
	d="
M250.725739,78.129303 
	C250.798080,77.153610 251.046326,76.152809 250.911316,75.206703 
	C250.409836,71.692574 251.615433,69.785034 255.342468,69.196556 
	C257.277618,68.891006 259.046692,67.533875 260.970154,66.292831 
	C261.558075,67.252586 262.804932,68.816360 262.461090,69.852127 
	C259.027191,80.196663 255.331314,90.454224 251.355164,100.550049 
	C250.957214,99.896324 250.913406,99.428848 250.905273,98.497139 
	C250.869217,91.398369 250.797485,84.763832 250.725739,78.129303 
z"/>
<path fill="#1197E8" opacity="1.000000" stroke="none" 
	d="
M203.981918,366.145264 
	C203.981918,366.145264 204.000809,366.482391 204.008774,366.651001 
	C203.431381,366.691864 202.354004,366.622406 202.330978,366.428040 
	C200.943527,354.713745 199.642746,342.989197 198.846497,331.380676 
	C202.664703,333.608948 205.970184,335.722168 209.275665,337.835388 
	C208.515823,340.964294 207.755981,344.093170 206.983093,348.025513 
	C205.973999,354.601044 204.977966,360.373169 203.981918,366.145264 
z"/>
<path fill="#64C1F4" opacity="1.000000" stroke="none" 
	d="
M209.567017,337.882751 
	C205.970184,335.722168 202.664703,333.608948 199.220398,331.177734 
	C200.941879,329.988281 202.929428,329.314178 204.640411,328.211090 
	C211.893646,323.534912 217.485138,328.673248 223.667908,331.535217 
	C223.338394,331.880341 222.863297,331.932159 221.681793,332.002075 
	C217.664719,334.003418 214.354034,335.986694 211.043350,337.969971 
	C210.648346,337.956665 210.253357,337.943359 209.567017,337.882751 
z"/>
<path fill="#FDFEFF" opacity="1.000000" stroke="none" 
	d="
M346.131897,112.867233 
	C346.131866,112.867233 346.165985,112.622467 346.513947,112.403442 
	C346.934845,111.824043 347.007782,111.463669 347.080750,111.103302 
	C347.080719,111.103294 347.028290,111.018280 347.352325,111.025803 
	C347.800323,110.705917 347.924316,110.378517 348.048309,110.051117 
	C348.048309,110.051125 348.000275,109.999870 348.365295,109.988876 
	C349.177948,109.011040 349.625610,108.044212 350.073242,107.077377 
	C350.073242,107.077377 350.006348,107.002251 350.385773,106.999397 
	C351.192902,106.008347 351.620605,105.020142 352.048340,104.031937 
	C352.048309,104.031937 352.000519,104.002136 352.394196,104.027985 
	C354.709015,104.656693 356.630157,105.259544 358.609497,105.880661 
	C358.328278,107.514481 358.123108,108.706528 357.917908,109.898575 
	C357.917908,109.898575 357.971802,109.983742 357.646912,109.973907 
	C357.198578,110.292183 357.075134,110.620293 356.951721,110.948410 
	C356.951721,110.948410 357.000000,111.000130 356.635132,111.012131 
	C355.827576,111.998604 355.384888,112.973091 354.942169,113.947571 
	C354.942169,113.947571 354.999481,114.000259 354.629578,114.004723 
	C353.816437,114.980209 353.373199,115.951241 352.929962,116.922256 
	C352.929962,116.922256 352.995483,116.994423 352.643585,116.999695 
	C352.145752,117.374100 351.999817,117.743225 351.853882,118.112350 
	C351.853882,118.112350 351.811432,118.371010 351.464111,118.602242 
	C351.054871,119.198166 350.992950,119.562859 350.931030,119.927544 
	C350.931030,119.927544 350.998993,119.994949 350.658142,120.022781 
	C350.175934,120.415916 350.034607,120.781219 349.893280,121.146523 
	C349.893280,121.146523 349.852936,121.386307 349.502411,121.605728 
	C349.077271,122.189743 349.002625,122.554337 348.927979,122.918922 
	C348.927979,122.918922 348.998871,122.991035 348.548737,122.971779 
	C346.766663,122.942146 345.434753,122.931770 344.102814,122.921402 
	C344.102814,122.921402 344.015930,122.968239 344.022888,122.642929 
	C343.697235,122.197830 343.364624,122.078041 343.032013,121.958252 
	C343.032013,121.958244 343.000000,121.999870 342.951660,121.666672 
	C342.954437,119.905212 343.005524,118.476936 343.056610,117.048668 
	C343.056610,117.048668 343.000000,117.000648 343.333740,116.975784 
	C343.818512,116.586143 343.969574,116.221375 344.120636,115.856606 
	C344.120636,115.856606 344.152222,115.616791 344.496246,115.395554 
	C344.918823,114.813782 344.997375,114.453247 345.075928,114.092720 
	C345.075928,114.092720 345.016388,114.012787 345.367798,113.999130 
	C345.856781,113.612724 345.994324,113.239983 346.131897,112.867233 
z"/>
<path fill="#64C1F4" opacity="1.000000" stroke="none" 
	d="
M235.988647,74.914734 
	C232.203369,75.546959 228.444717,75.910973 224.350677,76.100342 
	C224.015274,75.925690 224.097275,75.518539 224.363571,75.179878 
	C224.873001,74.594643 224.989532,74.298317 224.979431,73.952240 
	C226.114395,71.069588 227.249359,68.186935 228.983719,65.156708 
	C230.059738,64.760033 230.536346,64.510941 231.012970,64.261848 
	C231.176498,64.206551 231.340012,64.151245 232.091293,64.068588 
	C233.439316,63.715397 234.199570,63.389557 234.959839,63.063713 
	C234.959839,63.063713 234.972382,62.994953 235.007446,62.992867 
	C236.389374,62.982784 237.736267,62.974792 239.355743,63.293945 
	C238.420486,67.116577 237.212662,70.612068 236.004837,74.107559 
	C236.008316,74.287209 236.011795,74.466866 235.988647,74.914734 
z"/>
<path fill="#8FB4F9" opacity="1.000000" stroke="none" 
	d="
M358.255981,109.802063 
	C358.123108,108.706528 358.328278,107.514481 358.609497,105.880661 
	C356.630157,105.259544 354.709015,104.656693 352.413483,104.048996 
	C353.018524,102.180328 353.961945,100.296486 354.985474,98.457207 
	C356.677063,95.417427 359.069702,95.796432 361.470734,97.379250 
	C363.776184,98.899071 364.939301,100.810730 362.900909,103.495781 
	C361.379181,105.500328 360.023621,107.631027 358.255981,109.802063 
z"/>
<path fill="#B0CAFB" opacity="1.000000" stroke="none" 
	d="
M314.907379,88.095978 
	C315.322998,88.896973 316.218536,89.801788 316.071594,90.481087 
	C315.414978,93.516281 314.197083,96.446884 313.731628,99.499092 
	C313.515900,100.913612 314.556458,102.519707 315.176147,104.362854 
	C311.025574,103.666679 306.726349,102.646614 302.240295,101.295494 
	C309.524689,102.874931 309.181641,96.968437 310.708313,92.764397 
	C310.612122,96.184113 310.206116,99.461861 309.800110,102.739609 
	C310.312866,102.840630 310.825592,102.941643 311.338348,103.042664 
	C312.528015,98.060440 313.717712,93.078217 314.907379,88.095978 
z"/>
<path fill="#64C1F4" opacity="1.000000" stroke="none" 
	d="
M257.768951,63.603565 
	C255.821823,64.456268 253.759964,65.003113 251.698090,65.549957 
	C251.615173,63.873009 251.532257,62.196053 251.740982,60.266415 
	C253.906479,61.108395 255.780334,62.203053 257.768951,63.603565 
z"/>
<path fill="#64C1F4" opacity="1.000000" stroke="none" 
	d="
M231.969406,337.741577 
	C232.008331,339.861938 232.008331,341.746979 232.008331,345.022888 
	C229.531891,343.354126 228.308075,342.529449 226.404465,341.246704 
	C228.302536,339.584473 229.704391,338.356812 231.435699,337.093994 
	C231.765182,337.058807 231.930481,337.506256 231.969406,337.741577 
z"/>
<path fill="#B0CAFB" opacity="1.000000" stroke="none" 
	d="
M321.229309,98.855133 
	C321.309143,96.702263 321.906281,94.357361 322.071411,91.982430 
	C322.232513,89.665573 321.952240,87.318016 321.906036,84.601746 
	C322.460785,87.024834 323.350403,89.828453 323.362854,92.635956 
	C323.371765,94.637917 322.201538,96.645111 321.229309,98.855133 
z"/>
<path fill="#B0CAFB" opacity="1.000000" stroke="none" 
	d="
M321.674103,83.696701 
	C318.289917,83.020691 314.798859,81.986679 311.185364,80.627457 
	C314.564331,81.314407 318.065796,82.326553 321.674103,83.696701 
z"/>
<path fill="#B0CAFB" opacity="1.000000" stroke="none" 
	d="
M316.156494,105.219040 
	C319.765564,105.449142 318.557770,101.604111 320.401154,99.968315 
	C320.022308,102.267700 321.784943,106.610329 316.156494,105.219040 
z"/>
<path fill="#8FB4F9" opacity="1.000000" stroke="none" 
	d="
M342.714783,117.164040 
	C343.005524,118.476936 342.954437,119.905212 342.969971,121.647705 
	C339.210297,120.912048 341.228394,119.033821 342.714783,117.164040 
z"/>
<path fill="#8FB4F9" opacity="1.000000" stroke="none" 
	d="
M344.195099,123.242485 
	C345.434753,122.931770 346.766663,122.942146 348.505798,122.945862 
	C347.799347,126.319794 345.933746,124.129532 344.195099,123.242485 
z"/>
<path fill="#C2D6FC" opacity="1.000000" stroke="none" 
	d="
M321.724121,325.428772 
	C322.022339,326.659790 322.016876,327.914368 321.993652,329.544006 
	C321.790771,328.430145 321.605621,326.941223 321.724121,325.428772 
z"/>
<path fill="#C2D6FC" opacity="1.000000" stroke="none" 
	d="
M323.341370,331.345520 
	C326.421875,330.629852 325.745026,332.468597 325.041382,334.634216 
	C324.487885,333.863464 323.982086,332.753723 323.341370,331.345520 
z"/>
<path fill="#64C1F4" opacity="1.000000" stroke="none" 
	d="
M340.230286,116.889282 
	C339.860016,115.359749 339.838165,113.649292 339.880493,111.517967 
	C340.156036,112.967522 340.367401,114.837936 340.230286,116.889282 
z"/>
<path fill="#8FB4F9" opacity="1.000000" stroke="none" 
	d="
M353.246979,116.838440 
	C353.373199,115.951241 353.816437,114.980209 354.598389,113.980980 
	C354.479431,114.886726 354.021698,115.820671 353.246979,116.838440 
z"/>
<path fill="#8FB4F9" opacity="1.000000" stroke="none" 
	d="
M355.254944,113.850449 
	C355.384888,112.973091 355.827576,111.998604 356.608063,110.989212 
	C356.486450,111.887314 356.027069,112.820320 355.254944,113.850449 
z"/>
<path fill="#8FB4F9" opacity="1.000000" stroke="none" 
	d="
M351.735840,104.133522 
	C351.620605,105.020142 351.192902,106.008347 350.428650,107.025894 
	C350.535828,106.115204 350.979614,105.175148 351.735840,104.133522 
z"/>
<path fill="#64C1F4" opacity="1.000000" stroke="none" 
	d="
M336.906616,108.776062 
	C335.781311,108.705666 334.645538,108.361855 333.509766,108.018036 
	C333.557922,107.766945 333.606079,107.515846 333.654205,107.264755 
	C334.582214,107.375923 335.510193,107.487091 336.706421,107.779663 
	C336.948547,108.141594 336.922363,108.322121 336.906616,108.776062 
z"/>
<path fill="#8FB4F9" opacity="1.000000" stroke="none" 
	d="
M349.758484,107.168640 
	C349.625610,108.044212 349.177948,109.011040 348.391968,110.011971 
	C348.516998,109.117348 348.980377,108.188629 349.758484,107.168640 
z"/>
<path fill="#3BB3F3" opacity="1.000000" stroke="none" 
	d="
M250.869583,98.961380 
	C250.913406,99.428848 250.957214,99.896324 251.020126,100.715897 
	C250.732315,101.213371 250.425430,101.358742 249.954102,101.052460 
	C249.596725,100.329033 249.340286,100.146378 249.020370,100.052841 
	C249.013687,99.883499 249.007004,99.714157 249.308884,99.281799 
	C250.034821,98.999649 250.452209,98.980515 250.869583,98.961380 
z"/>
<path fill="#B0CAFB" opacity="1.000000" stroke="none" 
	d="
M308.813416,80.145050 
	C308.391022,80.823929 307.590332,81.381516 306.528168,82.089951 
	C306.989471,81.501785 307.712311,80.762772 308.813416,80.145050 
z"/>
<path fill="#C2D6FC" opacity="1.000000" stroke="none" 
	d="
M329.909027,327.657715 
	C329.561340,327.007538 329.274933,326.031525 329.073761,324.748840 
	C329.429443,325.405457 329.699890,326.368652 329.909027,327.657715 
z"/>
<path fill="#C2D6FC" opacity="1.000000" stroke="none" 
	d="
M328.432251,323.577423 
	C327.617249,323.899231 326.673950,323.963013 325.373230,324.005310 
	C326.111847,323.762329 327.207947,323.540863 328.432251,323.577423 
z"/>
<path fill="#3BB3F3" opacity="1.000000" stroke="none" 
	d="
M234.618774,63.066971 
	C234.199570,63.389557 233.439316,63.715397 232.345245,64.018036 
	C232.766876,63.686638 233.522293,63.378429 234.618774,63.066971 
z"/>
<path fill="#64C1F4" opacity="1.000000" stroke="none" 
	d="
M337.343750,107.974152 
	C337.796417,107.635284 338.600861,107.312050 339.750214,106.989151 
	C339.295227,107.322922 338.495361,107.656349 337.343750,107.974152 
z"/>
<path fill="#3BB3F3" opacity="1.000000" stroke="none" 
	d="
M230.712036,64.179611 
	C230.536346,64.510941 230.059738,64.760033 229.303864,64.996323 
	C229.486801,64.688133 229.948959,64.392754 230.712036,64.179611 
z"/>
<path fill="#64C1F4" opacity="1.000000" stroke="none" 
	d="
M338.832184,109.752792 
	C338.331451,109.927284 337.756348,109.801155 337.080750,109.385406 
	C337.572815,109.214592 338.165283,109.333382 338.832184,109.752792 
z"/>
<path fill="#8FB4F9" opacity="1.000000" stroke="none" 
	d="
M344.772766,114.172729 
	C344.997375,114.453247 344.918823,114.813782 344.571808,115.301132 
	C344.358765,115.036209 344.414185,114.644478 344.772766,114.172729 
z"/>
<path fill="#8FB4F9" opacity="1.000000" stroke="none" 
	d="
M350.159943,121.036072 
	C350.034607,120.781219 350.175934,120.415916 350.615417,120.001541 
	C350.751190,120.276863 350.588898,120.601250 350.159943,121.036072 
z"/>
<path fill="#1197E8" opacity="1.000000" stroke="none" 
	d="
M224.712280,74.037125 
	C224.989532,74.298317 224.873001,74.594643 224.429230,74.982864 
	C224.300751,74.790344 224.372940,74.456177 224.712280,74.037125 
z"/>
<path fill="#B0CAFB" opacity="1.000000" stroke="none" 
	d="
M310.767700,79.904160 
	C310.742218,80.130661 310.442078,80.332176 310.279236,80.250175 
	C310.342010,80.004662 310.567596,79.841156 310.767700,79.904160 
z"/>
<path fill="#8FB4F9" opacity="1.000000" stroke="none" 
	d="
M351.228088,119.836029 
	C350.992950,119.562859 351.054871,119.198166 351.384949,118.706696 
	C351.610474,118.968124 351.567841,119.356316 351.228088,119.836029 
z"/>
<path fill="#8FB4F9" opacity="1.000000" stroke="none" 
	d="
M343.096680,122.212189 
	C343.364624,122.078041 343.697235,122.197830 344.045654,122.599136 
	C343.761414,122.742470 343.461395,122.604294 343.096680,122.212189 
z"/>
<path fill="#8FB4F9" opacity="1.000000" stroke="none" 
	d="
M349.225708,122.829140 
	C349.002625,122.554337 349.077271,122.189743 349.424316,121.698898 
	C349.638977,121.961548 349.581207,122.350449 349.225708,122.829140 
z"/>
<path fill="#8FB4F9" opacity="1.000000" stroke="none" 
	d="
M352.122498,118.009201 
	C351.999817,117.743225 352.145752,117.374100 352.601501,116.975189 
	C352.737946,117.265617 352.564545,117.585831 352.122498,118.009201 
z"/>
<path fill="#8FB4F9" opacity="1.000000" stroke="none" 
	d="
M343.853760,115.967957 
	C343.969574,116.221375 343.818512,116.586143 343.362793,116.997849 
	C343.234406,116.722961 343.410645,116.401131 343.853760,115.967957 
z"/>
<path fill="#058ADA" opacity="1.000000" stroke="none" 
	d="
M249.016296,100.248352 
	C249.340286,100.146378 249.596725,100.329033 249.866730,100.827560 
	C249.943802,101.054306 249.464142,100.993416 249.235992,100.914177 
	C249.007858,100.834938 249.012207,100.443863 249.016296,100.248352 
z"/>
<path fill="#C2D6FC" opacity="1.000000" stroke="none" 
	d="
M322.120697,330.259705 
	C322.370483,330.076294 322.605713,330.212708 322.852814,330.643799 
	C322.580231,330.908203 322.327362,330.788574 322.120697,330.259705 
z"/>
<path fill="#8FB4F9" opacity="1.000000" stroke="none" 
	d="
M345.867371,112.979233 
	C345.994324,113.239983 345.856781,113.612724 345.412292,114.021614 
	C345.271210,113.735580 345.437042,113.413399 345.867371,112.979233 
z"/>
<path fill="#8FB4F9" opacity="1.000000" stroke="none" 
	d="
M346.778992,111.182030 
	C347.007782,111.463669 346.934845,111.824043 346.591400,112.307159 
	C346.372986,112.040192 346.425110,111.650475 346.778992,111.182030 
z"/>
<path fill="#8FB4F9" opacity="1.000000" stroke="none" 
	d="
M357.210693,110.896751 
	C357.075134,110.620293 357.198578,110.292183 357.601685,109.951660 
	C357.744110,110.241196 357.606903,110.543144 357.210693,110.896751 
z"/>
<path fill="#8FB4F9" opacity="1.000000" stroke="none" 
	d="
M347.789978,110.103943 
	C347.924316,110.378517 347.800323,110.705917 347.397461,111.047134 
	C347.256256,110.759560 347.393951,110.458160 347.789978,110.103943 
z"/>
<path fill="#64C1F4" opacity="1.000000" stroke="none" 
	d="
M339.861511,110.779907 
	C339.587158,110.900864 339.290161,110.765533 338.978424,110.368271 
	C339.255402,110.245430 339.547180,110.384521 339.861511,110.779907 
z"/>
<path fill="#000000" opacity="1.000000" stroke="none" 
	d="
M139.943237,289.007385 
	C138.980576,289.559723 137.738373,289.891663 136.496155,290.223602 
	C136.417404,289.974396 136.338638,289.725189 136.259888,289.476013 
	C136.981049,289.209259 137.702209,288.942474 138.729187,288.564270 
	C139.244568,288.564209 139.454132,288.675598 139.943237,289.007385 
z"/>
<path fill="#000000" opacity="1.000000" stroke="none" 
	d="
M124.057350,287.988098 
	C124.355988,287.468140 124.942184,287.158661 125.528381,286.849182 
	C125.546547,287.304596 125.564713,287.760040 125.285820,288.359863 
	C124.774139,288.402374 124.559525,288.300476 124.057350,287.988098 
z"/>
<path fill="#102550" opacity="1.000000" stroke="none" 
	d="
M121.953552,175.784500 
	C119.229774,175.115646 116.885742,174.548111 114.541702,173.980591 
	C114.424141,173.447433 114.306580,172.914276 114.189026,172.381134 
	C115.719376,171.808914 117.416832,170.497314 118.749756,170.798569 
	C123.348335,171.837952 128.558014,172.245712 131.477127,179.132721 
	C127.581955,177.749588 124.957619,176.817703 121.953552,175.784500 
z"/>
<path fill="#000000" opacity="1.000000" stroke="none" 
	d="
M168.304413,329.519714 
	C166.525513,330.363525 165.014771,330.931580 163.504013,331.499664 
	C163.337952,331.178955 163.171906,330.858276 163.005844,330.537567 
	C165.492249,327.613739 167.978668,324.689880 170.688858,321.502899 
	C173.185410,325.342133 170.394547,327.150055 168.304413,329.519714 
z"/>
<path fill="#000000" opacity="1.000000" stroke="none" 
	d="
M159.310364,111.509628 
	C163.985352,115.316994 169.270798,118.172905 170.532028,124.241142 
	C170.065674,124.800117 169.599319,125.359100 169.132965,125.918083 
	C166.586960,124.056419 163.896027,122.358582 161.543839,120.277817 
	C159.862839,118.790794 158.316605,116.941910 157.366730,114.942589 
	C156.994675,114.159531 158.414841,112.524979 159.310364,111.509628 
z"/>
<path fill="#102550" opacity="1.000000" stroke="none" 
	d="
M183.545456,104.178986 
	C182.858688,103.032524 182.302856,102.248871 181.747025,101.465210 
	C182.045471,101.058556 182.343903,100.651909 182.642349,100.245255 
	C184.407883,101.460678 186.603043,102.355103 187.818298,103.981651 
	C189.037704,105.613754 189.280090,107.975822 189.950684,110.017967 
	C189.404144,110.241470 188.857620,110.464981 188.311081,110.688492 
	C186.766190,108.639595 185.221298,106.590691 183.545456,104.178986 
z"/>
<path fill="#000000" opacity="1.000000" stroke="none" 
	d="
M364.252075,125.516006 
	C363.121429,126.498108 362.269745,127.174278 361.418060,127.850441 
	C361.046143,127.552208 360.674225,127.253967 360.302338,126.955727 
	C362.189697,124.452431 364.077057,121.949127 365.964417,119.445824 
	C366.439117,119.724258 366.913818,120.002693 367.388519,120.281120 
	C366.436035,121.924103 365.483551,123.567078 364.252075,125.516006 
z"/>
<path fill="#000000" opacity="1.000000" stroke="none" 
	d="
M360.881775,129.631653 
	C359.894623,130.617233 359.148987,131.188873 358.403320,131.760498 
	C358.082092,131.491165 357.760834,131.221832 357.439575,130.952499 
	C358.371826,129.813965 359.304077,128.675446 360.236328,127.536911 
	C360.531982,128.097168 360.827637,128.657440 360.881775,129.631653 
z"/>
<path fill="#000000" opacity="1.000000" stroke="none" 
	d="
M347.996857,333.947723 
	C346.609772,332.386414 345.439728,330.544617 344.269684,328.702850 
	C344.855652,328.378998 345.441620,328.055176 346.027588,327.731354 
	C346.794250,329.288147 347.560913,330.844940 348.434509,332.719971 
	C348.432281,333.247864 348.323090,333.457581 347.996857,333.947723 
z"/>
<path fill="#000000" opacity="1.000000" stroke="none" 
	d="
M388.641357,173.630951 
	C388.635498,174.156448 388.217957,174.353485 387.610779,174.264175 
	C387.690674,173.752731 387.960144,173.527618 388.641357,173.630951 
z"/>
<path fill="#000000" opacity="1.000000" stroke="none" 
	d="
M314.525635,88.015549 
	C313.717712,93.078217 312.528015,98.060440 311.338348,103.042664 
	C310.825592,102.941643 310.312866,102.840630 309.800110,102.739609 
	C310.206116,99.461861 310.612122,96.184113 310.942932,92.488976 
	C311.959778,90.692757 313.051849,89.313934 314.525635,88.015549 
z"/>
<path fill="#64C1F4" opacity="1.000000" stroke="none" 
	d="
M204.270493,365.957031 
	C204.977966,360.373169 205.973999,354.601044 207.002625,348.433075 
	C209.976318,349.206024 212.917435,350.374817 216.061676,351.864075 
	C212.362915,356.712646 208.460999,361.240723 204.270493,365.957031 
z"/>
<path fill="#C2D6FC" opacity="1.000000" stroke="none" 
	d="
M211.361206,338.109833 
	C214.354034,335.986694 217.664719,334.003418 221.326035,332.053436 
	C222.318466,335.806183 222.960266,339.525665 223.771515,344.227264 
	C219.239349,341.986908 215.459198,340.118317 211.361206,338.109833 
z"/>
<path fill="#64C1F4" opacity="1.000000" stroke="none" 
	d="
M250.905273,98.497139 
	C250.452209,98.980515 250.034821,98.999649 249.303253,99.027649 
	C245.995911,93.623543 243.002731,88.210571 239.923447,82.454323 
	C243.220337,80.765808 246.603348,79.420578 250.356049,78.102325 
	C250.797485,84.763832 250.869217,91.398369 250.905273,98.497139 
z"/>
<path fill="#C9DBFC" opacity="1.000000" stroke="none" 
	d="
M236.411163,74.078453 
	C237.212662,70.612068 238.420486,67.116577 239.760345,63.289444 
	C243.185303,65.193321 246.478256,67.428841 250.980118,70.485069 
	C245.242279,71.929092 241.029877,72.989220 236.411163,74.078453 
z"/>
</svg>