<svg version="1.1" id="Layer_1" xmlns="http://www.w3.org/2000/svg" xmlns:xlink="http://www.w3.org/1999/xlink" x="0px" y="0px"
	 width="100%" viewBox="0 0 500 500" enable-background="new 0 0 500 500" xml:space="preserve">
<path fill="#000000" opacity="1.000000" stroke="none" 
	d="
M348.000000,501.000000 
	C232.000031,501.000000 116.500053,501.000000 1.000062,501.000000 
	C1.000041,334.333405 1.000041,167.666794 1.000021,1.000151 
	C167.666550,1.000101 334.333099,1.000101 500.999756,1.000051 
	C500.999817,167.666519 500.999817,334.333038 500.999908,500.999786 
	C450.166656,501.000000 399.333344,501.000000 348.000000,501.000000 
M359.963348,121.436195 
	C359.651733,121.242798 359.340149,121.049400 359.030396,120.926201 
	C359.030396,120.926201 359.100403,120.920456 358.852905,120.282028 
	C357.875671,119.911301 356.898468,119.540573 355.317017,118.823662 
	C348.288239,113.016983 340.235870,109.729393 330.764832,108.268646 
	C321.334778,105.734978 312.017334,106.663536 302.099396,109.380447 
	C292.499817,113.142410 284.182098,118.631737 277.981476,127.052124 
	C283.000183,131.118698 287.160461,131.508942 292.090088,129.013535 
	C308.478943,120.717354 325.014587,120.323914 341.403503,128.894928 
	C353.913727,135.437439 354.295258,150.737808 344.209259,158.151489 
	C340.858795,160.614212 336.884918,162.228775 332.795685,164.448456 
	C335.605804,168.453827 338.277985,172.262512 341.366119,176.844376 
	C351.471680,176.844376 361.577240,176.844376 372.022858,176.844376 
	C372.022858,166.771332 372.707977,156.915070 371.809631,147.205322 
	C371.069336,139.203720 369.297333,131.037216 363.071503,124.970680 
	C363.071503,124.970680 363.138367,124.957672 362.961578,124.426666 
	C362.651794,124.237015 362.342010,124.047363 362.032135,123.967850 
	C362.032135,123.967850 362.142273,123.967316 361.963409,123.433861 
	C361.652893,123.241905 361.342346,123.049950 361.031616,122.968140 
	C361.031616,122.968140 361.141785,122.967712 360.962036,122.433334 
	C360.650635,122.241135 360.339264,122.048935 360.027649,121.972237 
	C360.027649,121.972237 360.143158,121.971893 359.963348,121.436195 
M370.805664,184.315033 
	C365.004303,184.203842 359.201721,183.973907 353.402069,184.032318 
	C350.567078,184.060867 347.737488,184.626053 343.980377,184.976624 
	C316.167511,184.977676 288.354614,184.956528 260.541779,184.987289 
	C240.727768,185.009201 220.913834,185.100967 200.219254,185.327499 
	C200.162857,198.220673 200.093277,211.113861 200.091415,224.007034 
	C200.091324,224.614456 200.693726,225.221970 201.940079,225.980957 
	C249.876343,225.980957 297.812592,225.980957 346.014130,225.980957 
	C346.014130,215.526184 345.975861,205.554901 346.055145,195.584534 
	C346.067108,194.079559 346.627167,192.578934 347.003571,191.843521 
	C349.109711,201.123993 351.946320,210.314453 353.104370,219.711761 
	C354.140320,228.118103 353.762604,236.781799 353.193817,245.277390 
	C352.707794,252.536880 351.065216,259.718933 349.269714,267.240479 
	C347.734192,270.247467 347.776794,272.164551 352.030334,271.962219 
	C356.185364,271.764648 360.362274,272.051880 364.520844,271.895142 
	C367.974731,271.764984 370.309326,270.626038 370.113220,266.272461 
	C369.746643,258.133850 369.890198,249.972305 369.988556,240.996323 
	C369.962280,238.760056 369.936005,236.523804 370.705353,233.832489 
	C370.744171,224.503464 370.783020,215.174423 370.986572,204.976730 
	C370.957275,201.767914 370.927948,198.559082 371.652222,194.881775 
	C371.385803,191.661896 371.119415,188.442017 370.805664,184.315033 
M375.959991,277.048889 
	C374.857391,276.701935 373.758942,276.070770 372.651550,276.054688 
	C366.057159,275.959137 359.459473,275.933868 352.865723,276.048065 
	C350.867279,276.082672 348.877777,276.634888 346.727295,276.748627 
	C346.727295,276.748627 346.524139,276.903259 346.146942,276.185883 
	C346.146942,265.249298 346.146942,254.312698 346.146942,242.999847 
	C333.052490,242.999847 320.450165,242.985703 307.847900,243.002533 
	C272.238678,243.050095 236.629471,243.110367 200.174332,243.385315 
	C200.174332,256.810547 200.174332,270.235779 200.174332,284.000092 
	C202.030960,284.000092 203.654648,284.000061 205.278336,284.000061 
	C249.542892,283.999969 293.807465,283.989166 338.071960,284.041809 
	C339.722931,284.043762 341.373199,284.663086 342.360168,285.252472 
	C335.691803,298.792999 326.826813,310.601410 314.186035,320.243652 
	C311.070282,323.926086 314.616394,322.974609 316.203156,322.979065 
	C334.835022,323.031464 353.467133,323.028076 372.098999,322.971985 
	C373.108887,322.968964 374.116974,322.368530 375.042267,322.052673 
	C375.042267,322.052673 375.049652,322.136230 375.804901,321.673523 
	C375.806152,307.083527 375.807404,292.493530 375.959991,277.048889 
M134.037094,323.848541 
	C135.273331,324.233795 136.504517,324.932129 137.746658,324.952179 
	C144.520844,325.061798 151.297714,325.004517 158.073669,325.004608 
	C160.244049,325.004608 162.414413,325.004578 164.584793,325.004578 
	C164.638596,324.515015 164.692398,324.025421 164.746201,323.535858 
	C162.498032,323.088165 160.249847,322.640442 157.249649,322.020538 
	C154.211288,320.544617 151.098541,319.203064 148.147324,317.569702 
	C134.681000,310.116791 136.227722,294.613495 150.269409,288.274170 
	C159.023712,284.321930 167.990768,281.924622 177.616486,281.956970 
	C179.002075,281.961639 181.746964,283.167480 180.931900,278.695831 
	C180.357468,278.457336 179.783630,278.012238 179.208527,278.010590 
	C165.327393,277.970337 151.445969,277.953949 137.565079,278.024384 
	C136.549530,278.029510 135.537506,278.724670 133.971924,279.650269 
	C134.031326,294.086304 134.090744,308.522308 134.037094,323.848541 
M156.111893,241.982315 
	C153.157867,241.977814 150.190521,241.815872 147.257843,242.063950 
	C146.368057,242.139206 145.574097,243.347519 144.044830,244.532684 
	C144.024475,249.328232 143.897354,254.126328 144.012253,258.918640 
	C144.140350,264.261536 144.488449,269.599213 145.107285,275.530609 
	C146.352676,275.457062 147.598083,275.383514 149.770615,275.062836 
	C158.188828,274.726898 166.604797,274.270782 175.026352,274.112213 
	C178.557465,274.045685 179.024902,272.995178 178.198517,269.617096 
	C176.175110,261.345856 173.783936,253.000320 173.208466,244.570816 
	C171.665741,221.972565 174.645416,200.033554 185.156219,179.505875 
	C195.453537,159.395096 209.756561,143.511566 230.967514,134.576935 
	C232.167404,134.071518 233.151001,133.052567 234.235260,132.272629 
	C234.105865,131.774384 233.976471,131.276123 233.847092,130.777878 
	C226.846527,130.497498 219.838440,130.339996 212.846970,129.911285 
	C198.118820,129.008194 183.398392,127.977341 168.677475,126.960045 
	C166.557571,126.813553 164.456451,126.270348 162.339920,126.225044 
	C157.045135,126.111679 151.746490,126.178917 145.963043,125.465057 
	C145.643463,125.658485 145.045197,125.850426 145.044159,126.045547 
	C144.985901,136.973251 144.920227,147.902161 145.101135,158.826889 
	C145.112427,159.508545 147.095764,160.157532 149.050018,160.992844 
	C152.093979,161.142990 155.137955,161.293152 158.184769,162.308411 
	C158.008789,177.896591 157.832794,193.484756 157.025299,209.589020 
	C157.024948,220.315308 157.024597,231.041595 156.111893,241.982315 
M199.210876,323.006958 
	C197.246429,323.214691 195.281967,323.422455 193.317520,323.630188 
	C193.379822,324.006561 193.442108,324.382965 193.504410,324.759369 
	C201.195374,324.759369 208.886337,324.759369 216.577286,324.759369 
	C216.639038,324.545197 216.700806,324.331024 216.762558,324.116852 
	C215.843430,323.691315 214.924286,323.265747 213.704620,322.215332 
	C208.760147,317.825012 205.983734,317.943268 199.210876,323.006958 
M254.938553,294.011017 
	C253.705780,294.090729 252.473007,294.170471 251.182526,294.253967 
	C251.182526,301.755310 251.182526,308.839844 251.297867,316.783203 
	C253.074509,316.863831 254.851151,316.944458 256.999023,317.041962 
	C256.999023,309.626007 257.016022,302.425995 256.947235,295.226776 
	C256.943909,294.878265 256.186371,294.536957 254.938553,294.011017 
M267.054535,299.586548 
	C268.930023,299.836304 270.805481,300.086060 272.996155,300.377777 
	C272.996155,302.210510 272.897308,303.993561 273.016571,305.761963 
	C273.270325,309.525269 273.637390,313.280914 274.353271,317.725922 
	C277.949097,318.676544 279.157745,317.100830 279.035431,313.622040 
	C278.879395,309.184143 278.997620,304.736572 278.997620,300.237305 
	C280.160309,300.140594 280.888885,300.261688 281.433838,300.000183 
	C282.981476,299.257568 284.454163,298.358704 285.956360,297.521362 
	C284.441742,296.692383 282.965607,295.245636 281.405426,295.148560 
	C276.446564,294.839996 271.456390,295.034393 265.923035,295.034393 
	C266.145874,296.443726 266.335602,297.643402 267.054535,299.586548 
M288.082581,313.512238 
	C288.346222,314.976715 288.609863,316.441193 288.873474,317.905670 
	C290.970520,316.708984 293.067596,315.512268 295.164642,314.315582 
	C295.114960,313.596527 295.065277,312.877472 295.015564,312.158386 
	C297.330597,313.147675 300.937469,313.547882 301.709442,315.240784 
	C303.725006,319.660919 306.018707,317.971375 308.867340,316.975128 
	C306.492096,310.728058 304.348694,304.785950 301.935730,298.955383 
	C301.319916,297.467377 300.072754,295.619293 298.721985,295.197510 
	C296.508728,294.506439 294.544250,294.908997 293.747559,298.227509 
	C292.543549,303.243011 290.357117,308.022644 288.082581,313.512238 
M230.311081,315.875854 
	C233.479813,316.233246 236.707245,317.142212 239.802841,316.812653 
	C243.955811,316.370514 246.895660,308.945465 244.649185,305.389984 
	C244.280365,304.806244 243.290970,304.193420 242.666672,304.266174 
	C240.148499,304.559570 237.661011,305.116364 233.903732,305.807251 
	C235.980148,307.709442 237.337662,308.953064 239.659363,311.079956 
	C237.089676,311.457336 234.944107,312.472534 233.581726,311.829163 
	C230.590195,310.416534 230.005386,302.818359 232.307983,300.239807 
	C234.192001,298.129974 235.920120,297.053284 238.389282,299.838348 
	C239.533798,301.129272 241.685455,301.527252 244.243301,302.738678 
	C243.424500,296.701904 240.807877,294.441193 236.286407,293.980743 
	C232.132446,293.557739 228.477921,294.641113 226.462723,298.306244 
	C224.117279,302.572021 226.348953,312.502960 230.311081,315.875854 
z"/>
<path fill="#06998A" opacity="1.000000" stroke="none" 
	d="
M146.449387,126.173691 
	C151.746490,126.178917 157.045135,126.111679 162.339920,126.225044 
	C164.456451,126.270348 166.557571,126.813553 168.677475,126.960045 
	C183.398392,127.977341 198.118820,129.008194 212.846970,129.911285 
	C219.838440,130.339996 226.846527,130.497498 233.847092,130.777878 
	C233.976471,131.276123 234.105865,131.774384 234.235260,132.272629 
	C233.151001,133.052567 232.167404,134.071518 230.967514,134.576935 
	C209.756561,143.511566 195.453537,159.395096 185.156219,179.505875 
	C174.645416,200.033554 171.665741,221.972565 173.208466,244.570816 
	C173.783936,253.000320 176.175110,261.345856 178.198517,269.617096 
	C179.024902,272.995178 178.557465,274.045685 175.026352,274.112213 
	C166.604797,274.270782 158.188828,274.726898 148.986832,275.044434 
	C147.326157,274.697906 146.449280,274.369812 145.590729,273.570923 
	C145.685898,263.428101 145.762726,253.756119 146.277527,243.936752 
	C150.507980,243.161301 154.300476,242.533234 158.231155,241.460526 
	C158.456879,230.403687 158.544418,219.791473 158.781891,208.721039 
	C159.116455,193.987183 159.336823,179.711777 159.426727,165.435547 
	C159.435104,164.107452 158.616531,162.774170 158.181915,161.443298 
	C155.137955,161.293152 152.093979,161.142990 148.423340,160.569336 
	C147.281418,158.527267 146.334564,156.912140 146.321701,155.289612 
	C146.244873,145.585251 146.383224,135.879181 146.449387,126.173691 
z"/>
<path fill="#FC5C2A" opacity="1.000000" stroke="none" 
	d="
M340.950134,176.071213 
	C338.277985,172.262512 335.605804,168.453827 332.795685,164.448456 
	C336.884918,162.228775 340.858795,160.614212 344.209259,158.151489 
	C354.295258,150.737808 353.913727,135.437439 341.403503,128.894928 
	C325.014587,120.323914 308.478943,120.717354 292.090088,129.013535 
	C287.160461,131.508942 283.000183,131.118698 277.981476,127.052124 
	C284.182098,118.631737 292.499817,113.142410 302.707947,109.565308 
	C312.592224,109.500450 321.867889,109.250725 331.143585,109.001007 
	C340.235870,109.729393 348.288239,113.016983 355.749542,119.337311 
	C357.154846,120.207466 358.127625,120.563965 359.100403,120.920456 
	C359.100403,120.920456 359.030396,120.926201 358.913452,121.279030 
	C359.245361,121.745201 359.694275,121.858543 360.143158,121.971893 
	C360.143158,121.971893 360.027649,121.972237 359.910828,122.306839 
	C360.243256,122.750206 360.692535,122.858963 361.141785,122.967712 
	C361.141785,122.967712 361.031616,122.968140 360.901947,123.306129 
	C361.228943,123.751854 361.685608,123.859581 362.142273,123.967316 
	C362.142273,123.967316 362.032135,123.967850 361.899109,124.317192 
	C362.223480,124.763580 362.680939,124.860626 363.138367,124.957672 
	C363.138367,124.957672 363.071503,124.970680 362.759247,125.202591 
	C372.868530,140.856277 370.850494,158.194214 370.724945,176.071213 
	C360.411469,176.071213 350.680817,176.071213 340.950134,176.071213 
z"/>
<path fill="#637F8D" opacity="1.000000" stroke="none" 
	d="
M314.939148,320.026245 
	C326.826813,310.601410 335.691803,298.792999 342.868469,284.926147 
	C343.602539,284.135468 343.828278,283.671051 344.289185,282.968567 
	C344.757568,281.892365 344.990814,281.054260 345.451141,279.988403 
	C345.960175,278.808197 346.242157,277.855713 346.524139,276.903259 
	C346.524139,276.903259 346.727295,276.748627 347.267822,276.973572 
	C356.907257,277.448608 366.006165,277.698761 375.077606,278.420013 
	C375.050018,293.306183 375.049835,307.721191 375.049652,322.136230 
	C375.049652,322.136230 375.042267,322.052673 374.616333,321.951233 
	C356.132477,321.835480 338.074127,321.868439 320.017151,321.729401 
	C318.320190,321.716370 316.631622,320.619751 314.939148,320.026245 
z"/>
<path fill="#FC5C2A" opacity="1.000000" stroke="none" 
	d="
M369.909760,234.287537 
	C369.936005,236.523804 369.962280,238.760056 369.586609,241.636963 
	C368.972656,247.090195 368.786865,251.904144 368.543732,256.715179 
	C367.846008,270.519623 367.836884,270.519012 353.882629,270.206787 
	C353.549591,270.199341 353.071136,270.348572 352.906647,270.181854 
	C351.876862,269.138092 350.917114,268.025238 349.934174,266.935242 
	C351.065216,259.718933 352.707794,252.536880 353.193817,245.277390 
	C353.762604,236.781799 354.140320,228.118103 353.104370,219.711761 
	C351.946320,210.314453 349.109711,201.123993 347.030670,191.114227 
	C347.097900,188.661957 347.138062,186.938965 347.634613,185.223236 
	C354.996918,185.243591 361.902802,185.256714 369.022583,185.598450 
	C369.790527,189.068130 370.344574,192.209198 370.898621,195.350266 
	C370.927948,198.559082 370.957275,201.767914 370.567963,205.692078 
	C369.723999,214.341949 369.240784,222.274200 368.929474,230.213196 
	C368.876801,231.556427 369.564240,232.928696 369.909760,234.287537 
z"/>
<path fill="#FA5F2E" opacity="1.000000" stroke="none" 
	d="
M180.918625,279.667236 
	C181.746964,283.167480 179.002075,281.961639 177.616486,281.956970 
	C167.990768,281.924622 159.023712,284.321930 150.269409,288.274170 
	C136.227722,294.613495 134.681000,310.116791 148.147324,317.569702 
	C151.098541,319.203064 154.211288,320.544617 157.760498,322.332153 
	C158.429489,322.925323 158.594681,323.203613 158.729080,323.496063 
	C158.737518,323.514465 158.503662,323.713867 158.385864,323.710571 
	C150.580414,323.491974 142.775299,323.261139 135.030167,322.563965 
	C135.070740,308.146301 135.051331,294.196014 135.469147,280.068909 
	C150.910446,279.817139 165.914536,279.742188 180.918625,279.667236 
z"/>
<path fill="#F6A78C" opacity="1.000000" stroke="none" 
	d="
M347.178223,185.215988 
	C347.138062,186.938965 347.097900,188.661957 346.995728,190.730621 
	C346.627167,192.578934 346.067108,194.079559 346.055145,195.584534 
	C345.975861,205.554901 346.014130,215.526184 346.014130,225.980957 
	C297.812592,225.980957 249.876343,225.980957 201.473083,225.675201 
	C201.006088,225.369461 201.072113,224.914032 201.535843,224.936157 
	C247.792953,224.968246 293.586334,224.978592 339.379700,224.985794 
	C340.378387,224.985947 341.518250,225.246613 342.339539,224.855331 
	C343.333862,224.381638 344.781128,223.351913 344.791718,222.546463 
	C344.948914,210.611435 344.900177,198.673691 344.900177,186.111908 
	C296.571228,186.111908 248.834824,186.111908 201.084686,185.874298 
	C201.070969,185.636703 201.099854,185.161575 201.099854,185.161575 
	C220.913834,185.100967 240.727768,185.009201 260.541779,184.987289 
	C288.354614,184.956528 316.167511,184.977676 344.824585,184.988708 
	C346.171936,185.072525 346.675079,185.144257 347.178223,185.215988 
z"/>
<path fill="#FA5F2E" opacity="1.000000" stroke="none" 
	d="
M288.335388,313.207367 
	C290.357117,308.022644 292.543549,303.243011 293.747559,298.227509 
	C294.544250,294.908997 296.508728,294.506439 298.721985,295.197510 
	C300.072754,295.619293 301.319916,297.467377 301.935730,298.955383 
	C304.348694,304.785950 306.492096,310.728058 308.867340,316.975128 
	C306.018707,317.971375 303.725006,319.660919 301.709442,315.240784 
	C300.937469,313.547882 297.330597,313.147675 295.015564,312.158386 
	C295.065277,312.877472 295.114960,313.596527 295.164642,314.315582 
	C293.067596,315.512268 290.970520,316.708984 288.873474,317.905670 
	C288.609863,316.441193 288.346222,314.976715 288.335388,313.207367 
z"/>
<path fill="#06998A" opacity="1.000000" stroke="none" 
	d="
M230.043274,315.615540 
	C226.348953,312.502960 224.117279,302.572021 226.462723,298.306244 
	C228.477921,294.641113 232.132446,293.557739 236.286407,293.980743 
	C240.807877,294.441193 243.424500,296.701904 244.243301,302.738678 
	C241.685455,301.527252 239.533798,301.129272 238.389282,299.838348 
	C235.920120,297.053284 234.192001,298.129974 232.307983,300.239807 
	C230.005386,302.818359 230.590195,310.416534 233.581726,311.829163 
	C234.944107,312.472534 237.089676,311.457336 239.659363,311.079956 
	C237.337662,308.953064 235.980148,307.709442 233.903732,305.807251 
	C237.661011,305.116364 240.148499,304.559570 242.666672,304.266174 
	C243.290970,304.193420 244.280365,304.806244 244.649185,305.389984 
	C246.895660,308.945465 243.955811,316.370514 239.802841,316.812653 
	C236.707245,317.142212 233.479813,316.233246 230.043274,315.615540 
z"/>
<path fill="#C1E8E5" opacity="1.000000" stroke="none" 
	d="
M344.054047,283.206665 
	C343.828278,283.671051 343.602539,284.135468 343.200256,284.797272 
	C341.373199,284.663086 339.722931,284.043762 338.071960,284.041809 
	C293.807465,283.989166 249.542892,283.999969 205.278336,284.000061 
	C203.654648,284.000061 202.030960,284.000092 200.174332,284.000092 
	C200.174332,270.235779 200.174332,256.810547 200.604889,243.506989 
	C201.035431,243.628647 201.127838,244.082962 201.059952,244.541824 
	C200.992065,257.576141 200.992065,270.151581 200.992065,282.995209 
	C203.713120,282.995209 205.695999,282.995209 207.678894,282.995209 
	C242.317627,282.995178 276.956360,282.978729 311.595093,283.004852 
	C322.414764,283.013031 333.234406,283.136169 344.054047,283.206665 
z"/>
<path fill="#52B4AA" opacity="1.000000" stroke="none" 
	d="
M201.127838,244.082962 
	C201.127838,244.082962 201.035431,243.628647 201.027832,243.397125 
	C236.629471,243.110367 272.238678,243.050095 307.847900,243.002533 
	C320.450165,242.985703 333.052490,242.999847 346.146942,242.999847 
	C346.146942,254.312698 346.146942,265.249298 346.335541,276.544556 
	C346.242157,277.855713 345.960175,278.808197 345.340820,279.506195 
	C344.945007,269.098541 344.744049,258.943115 344.902191,248.793320 
	C344.960876,245.027115 343.619446,243.937683 339.975708,243.946793 
	C293.693268,244.062256 247.410507,244.057266 201.127838,244.082962 
z"/>
<path fill="#FA5F2E" opacity="1.000000" stroke="none" 
	d="
M266.525299,298.843079 
	C266.335602,297.643402 266.145874,296.443726 265.923035,295.034393 
	C271.456390,295.034393 276.446564,294.839996 281.405426,295.148560 
	C282.965607,295.245636 284.441742,296.692383 285.956360,297.521362 
	C284.454163,298.358704 282.981476,299.257568 281.433838,300.000183 
	C280.888885,300.261688 280.160309,300.140594 278.997620,300.237305 
	C278.997620,304.736572 278.879395,309.184143 279.035431,313.622040 
	C279.157745,317.100830 277.949097,318.676544 274.198944,316.913940 
	C274.044617,310.440552 274.044617,304.779144 274.044617,298.843079 
	C271.046753,298.843079 268.786041,298.843079 266.525299,298.843079 
z"/>
<path fill="#06998A" opacity="1.000000" stroke="none" 
	d="
M251.182526,315.924347 
	C251.182526,308.839844 251.182526,301.755310 251.182526,294.253967 
	C252.473007,294.170471 253.705780,294.090729 255.418106,294.552429 
	C255.897659,301.953888 255.897659,308.813934 255.897659,315.924347 
	C254.079941,315.924347 252.631226,315.924347 251.182526,315.924347 
z"/>
<path fill="#FDE6DC" opacity="1.000000" stroke="none" 
	d="
M341.158142,176.457794 
	C350.680817,176.071213 360.411469,176.071213 370.724945,176.071213 
	C370.850494,158.194214 372.868530,140.856277 362.768616,125.169846 
	C369.297333,131.037216 371.069336,139.203720 371.809631,147.205322 
	C372.707977,156.915070 372.022858,166.771332 372.022858,176.844376 
	C361.577240,176.844376 351.471680,176.844376 341.158142,176.457794 
z"/>
<path fill="#FDE6DC" opacity="1.000000" stroke="none" 
	d="
M349.601929,267.087860 
	C350.917114,268.025238 351.876862,269.138092 352.906647,270.181854 
	C353.071136,270.348572 353.549591,270.199341 353.882629,270.206787 
	C367.836884,270.519012 367.846008,270.519623 368.543732,256.715179 
	C368.786865,251.904144 368.972656,247.090195 369.503052,242.048950 
	C369.890198,249.972305 369.746643,258.133850 370.113220,266.272461 
	C370.309326,270.626038 367.974731,271.764984 364.520844,271.895142 
	C360.362274,272.051880 356.185364,271.764648 352.030334,271.962219 
	C347.776794,272.164551 347.734192,270.247467 349.601929,267.087860 
z"/>
<path fill="#FDE6DC" opacity="1.000000" stroke="none" 
	d="
M180.925262,279.181519 
	C165.914536,279.742188 150.910446,279.817139 135.339935,279.783264 
	C134.690277,279.482605 134.607056,279.290833 134.523849,279.098999 
	C135.537506,278.724670 136.549530,278.029510 137.565079,278.024384 
	C151.445969,277.953949 165.327393,277.970337 179.208527,278.010590 
	C179.783630,278.012238 180.357468,278.457336 180.925262,279.181519 
z"/>
<path fill="#C1E8E5" opacity="1.000000" stroke="none" 
	d="
M158.183350,161.875854 
	C158.616531,162.774170 159.435104,164.107452 159.426727,165.435547 
	C159.336823,179.711777 159.116455,193.987183 158.533936,208.732971 
	C158.136078,209.203140 157.656815,209.072937 157.656815,209.072937 
	C157.832794,193.484756 158.008789,177.896591 158.183350,161.875854 
z"/>
<path fill="#FDE6DC" opacity="1.000000" stroke="none" 
	d="
M314.562592,320.134949 
	C316.631622,320.619751 318.320190,321.716370 320.017151,321.729401 
	C338.074127,321.868439 356.132477,321.835480 374.658173,321.947998 
	C374.116974,322.368530 373.108887,322.968964 372.098999,322.971985 
	C353.467133,323.028076 334.835022,323.031464 316.203156,322.979065 
	C314.616394,322.974609 311.070282,323.926086 314.562592,320.134949 
z"/>
<path fill="#FDE6DC" opacity="1.000000" stroke="none" 
	d="
M145.839569,244.084137 
	C145.762726,253.756119 145.685898,263.428101 145.416504,273.683472 
	C145.028687,274.466370 144.867630,274.690460 144.740799,274.939148 
	C144.488449,269.599213 144.140350,264.261536 144.012253,258.918640 
	C143.897354,254.126328 144.024475,249.328232 144.665710,244.329559 
	C145.470901,244.112335 145.655228,244.098236 145.839569,244.084137 
z"/>
<path fill="#FA5F2E" opacity="1.000000" stroke="none" 
	d="
M200.043732,322.797119 
	C205.983734,317.943268 208.760147,317.825012 213.432648,322.596863 
	C208.788361,322.917999 204.416046,322.857544 200.043732,322.797119 
z"/>
<path fill="#FDE6DC" opacity="1.000000" stroke="none" 
	d="
M157.341064,209.330978 
	C157.656815,209.072937 158.136078,209.203140 158.384018,209.191208 
	C158.544418,219.791473 158.456879,230.403687 157.963654,241.427246 
	C157.380035,241.815018 157.202133,241.791458 157.024246,241.767883 
	C157.024597,231.041595 157.024948,220.315308 157.341064,209.330978 
z"/>
<path fill="#F6A78C" opacity="1.000000" stroke="none" 
	d="
M134.247894,279.374634 
	C134.607056,279.290833 134.690277,279.482605 134.902710,279.960083 
	C135.051331,294.196014 135.070740,308.146301 134.825165,322.545593 
	C134.560150,322.994659 134.150146,322.958344 134.150146,322.958344 
	C134.090744,308.522308 134.031326,294.086304 134.247894,279.374634 
z"/>
<path fill="#C1E8E5" opacity="1.000000" stroke="none" 
	d="
M375.427277,321.904877 
	C375.049835,307.721191 375.050018,293.306183 375.253021,278.400696 
	C375.455872,277.910248 375.808624,277.903534 375.808624,277.903534 
	C375.807404,292.493530 375.806152,307.083527 375.427277,321.904877 
z"/>
<path fill="#FDE6DC" opacity="1.000000" stroke="none" 
	d="
M134.093628,323.403442 
	C134.150146,322.958344 134.560150,322.994659 134.765167,323.013000 
	C142.775299,323.261139 150.580414,323.491974 158.385864,323.710571 
	C158.503662,323.713867 158.737518,323.514465 158.729080,323.496063 
	C158.594681,323.203613 158.429489,322.925323 158.136505,322.418274 
	C160.249847,322.640442 162.498032,323.088165 164.746201,323.535858 
	C164.692398,324.025421 164.638596,324.515015 164.584793,325.004578 
	C162.414413,325.004578 160.244049,325.004608 158.073669,325.004608 
	C151.297714,325.004517 144.520844,325.061798 137.746658,324.952179 
	C136.504517,324.932129 135.273331,324.233795 134.093628,323.403442 
z"/>
<path fill="#FDE6DC" opacity="1.000000" stroke="none" 
	d="
M201.072113,224.914032 
	C201.072113,224.914032 201.006088,225.369461 201.010834,225.599457 
	C200.693726,225.221970 200.091324,224.614456 200.091415,224.007034 
	C200.093277,211.113861 200.162857,198.220673 200.659546,185.244537 
	C201.099854,185.161575 201.070969,185.636703 201.005219,186.329346 
	C200.983673,199.652679 201.027893,212.283356 201.072113,224.914032 
z"/>
<path fill="#C1E8E5" opacity="1.000000" stroke="none" 
	d="
M146.206207,125.819374 
	C146.383224,135.879181 146.244873,145.585251 146.321701,155.289612 
	C146.334564,156.912140 147.281418,158.527267 147.979141,160.483765 
	C147.095764,160.157532 145.112427,159.508545 145.101135,158.826889 
	C144.920227,147.902161 144.985901,136.973251 145.044159,126.045547 
	C145.045197,125.850426 145.643463,125.658485 146.206207,125.819374 
z"/>
<path fill="#FDE6DC" opacity="1.000000" stroke="none" 
	d="
M370.307556,234.060013 
	C369.564240,232.928696 368.876801,231.556427 368.929474,230.213196 
	C369.240784,222.274200 369.723999,214.341949 370.485596,206.126404 
	C370.783020,215.174423 370.744171,224.503464 370.307556,234.060013 
z"/>
<path fill="#FDE6DC" opacity="1.000000" stroke="none" 
	d="
M199.627304,322.902039 
	C204.416046,322.857544 208.788361,322.917999 213.582916,322.909302 
	C214.924286,323.265747 215.843430,323.691315 216.762558,324.116852 
	C216.700806,324.331024 216.639038,324.545197 216.577286,324.759369 
	C208.886337,324.759369 201.195374,324.759369 193.504410,324.759369 
	C193.442108,324.382965 193.379822,324.006561 193.317520,323.630188 
	C195.281967,323.422455 197.246429,323.214691 199.627304,322.902039 
z"/>
<path fill="#FDE6DC" opacity="1.000000" stroke="none" 
	d="
M330.954224,108.634827 
	C321.867889,109.250725 312.592224,109.500450 303.034058,109.464989 
	C312.017334,106.663536 321.334778,105.734978 330.954224,108.634827 
z"/>
<path fill="#FDE6DC" opacity="1.000000" stroke="none" 
	d="
M375.884308,277.476196 
	C375.808624,277.903534 375.455872,277.910248 375.280457,277.929565 
	C366.006165,277.698761 356.907257,277.448608 347.346283,277.074280 
	C348.877777,276.634888 350.867279,276.082672 352.865723,276.048065 
	C359.459473,275.933868 366.057159,275.959137 372.651550,276.054688 
	C373.758942,276.070770 374.857391,276.701935 375.884308,277.476196 
z"/>
<path fill="#C1E8E5" opacity="1.000000" stroke="none" 
	d="
M251.240204,316.353760 
	C252.631226,315.924347 254.079941,315.924347 255.897659,315.924347 
	C255.897659,308.813934 255.897659,301.953888 255.838837,294.643066 
	C256.186371,294.536957 256.943909,294.878265 256.947235,295.226776 
	C257.016022,302.425995 256.999023,309.626007 256.999023,317.041962 
	C254.851151,316.944458 253.074509,316.863831 251.240204,316.353760 
z"/>
<path fill="#FDE6DC" opacity="1.000000" stroke="none" 
	d="
M347.634613,185.223236 
	C346.675079,185.144257 346.171936,185.072525 345.287109,184.974564 
	C347.737488,184.626053 350.567078,184.060867 353.402069,184.032318 
	C359.201721,183.973907 365.004303,184.203842 370.486938,184.740463 
	C369.715057,185.200546 369.261871,185.235184 368.808716,185.269836 
	C361.902802,185.256714 354.996918,185.243591 347.634613,185.223236 
z"/>
<path fill="#FDE6DC" opacity="1.000000" stroke="none" 
	d="
M266.789917,299.214813 
	C268.786041,298.843079 271.046753,298.843079 274.044617,298.843079 
	C274.044617,304.779144 274.044617,310.440552 274.001282,316.570831 
	C273.637390,313.280914 273.270325,309.525269 273.016571,305.761963 
	C272.897308,303.993561 272.996155,302.210510 272.996155,300.377777 
	C270.805481,300.086060 268.930023,299.836304 266.789917,299.214813 
z"/>
<path fill="#C1E8E5" opacity="1.000000" stroke="none" 
	d="
M156.568069,241.875092 
	C157.202133,241.791458 157.380035,241.815018 157.825470,241.871887 
	C154.300476,242.533234 150.507980,243.161301 146.277527,243.936752 
	C145.655228,244.098236 145.470901,244.112335 145.011414,244.081650 
	C145.574097,243.347519 146.368057,242.139206 147.257843,242.063950 
	C150.190521,241.815872 153.157867,241.977814 156.568069,241.875092 
z"/>
<path fill="#F6A78C" opacity="1.000000" stroke="none" 
	d="
M369.022583,185.598450 
	C369.261871,185.235184 369.715057,185.200546 370.510620,185.194016 
	C371.119415,188.442017 371.385803,191.661896 371.275391,195.116028 
	C370.344574,192.209198 369.790527,189.068130 369.022583,185.598450 
z"/>
<path fill="#C1E8E5" opacity="1.000000" stroke="none" 
	d="
M144.924042,275.234863 
	C144.867630,274.690460 145.028687,274.466370 145.398163,274.154297 
	C146.449280,274.369812 147.326157,274.697906 148.523254,275.167969 
	C147.598083,275.383514 146.352676,275.457062 144.924042,275.234863 
z"/>
<path fill="#FDE6DC" opacity="1.000000" stroke="none" 
	d="
M358.976654,120.601242 
	C358.127625,120.563965 357.154846,120.207466 356.051636,119.510406 
	C356.898468,119.540573 357.875671,119.911301 358.976654,120.601242 
z"/>
<path fill="#FDE6DC" opacity="1.000000" stroke="none" 
	d="
M363.049988,124.692169 
	C362.680939,124.860626 362.223480,124.763580 361.899139,124.262123 
	C362.342010,124.047363 362.651794,124.237015 363.049988,124.692169 
z"/>
<path fill="#FDE6DC" opacity="1.000000" stroke="none" 
	d="
M362.052856,123.700592 
	C361.685608,123.859581 361.228943,123.751854 360.902039,123.251060 
	C361.342346,123.049950 361.652893,123.241905 362.052856,123.700592 
z"/>
<path fill="#FDE6DC" opacity="1.000000" stroke="none" 
	d="
M361.051910,122.700523 
	C360.692535,122.858963 360.243256,122.750206 359.910950,122.249092 
	C360.339264,122.048935 360.650635,122.241135 361.051910,122.700523 
z"/>
<path fill="#FDE6DC" opacity="1.000000" stroke="none" 
	d="
M360.053253,121.704041 
	C359.694275,121.858543 359.245361,121.745201 358.912506,121.243927 
	C359.340149,121.049400 359.651733,121.242798 360.053253,121.704041 
z"/>
<path fill="#009788" opacity="1.000000" stroke="none" 
	d="
M201.059952,244.541824 
	C247.410507,244.057266 293.693268,244.062256 339.975708,243.946793 
	C343.619446,243.937683 344.960876,245.027115 344.902191,248.793320 
	C344.744049,258.943115 344.945007,269.098541 345.113739,279.733948 
	C344.990814,281.054260 344.757568,281.892365 344.289185,282.968567 
	C333.234406,283.136169 322.414764,283.013031 311.595093,283.004852 
	C276.956360,282.978729 242.317627,282.995178 207.678894,282.995209 
	C205.695999,282.995209 203.713120,282.995209 200.992065,282.995209 
	C200.992065,270.151581 200.992065,257.576141 201.059952,244.541824 
z"/>
<path fill="#FE5722" opacity="1.000000" stroke="none" 
	d="
M201.535843,224.936157 
	C201.027893,212.283356 200.983673,199.652679 201.018936,186.566956 
	C248.834824,186.111908 296.571228,186.111908 344.900177,186.111908 
	C344.900177,198.673691 344.948914,210.611435 344.791718,222.546463 
	C344.781128,223.351913 343.333862,224.381638 342.339539,224.855331 
	C341.518250,225.246613 340.378387,224.985947 339.379700,224.985794 
	C293.586334,224.978592 247.792953,224.968246 201.535843,224.936157 
z"/>
</svg>